<?xml version="1.0" encoding="utf-8"?>
<!-- Generator: Adobe Illustrator 24.3.0, SVG Export Plug-In . SVG Version: 6.00 Build 0)  -->
<svg version="1.1" id="Capa_1" xmlns="http://www.w3.org/2000/svg" xmlns:xlink="http://www.w3.org/1999/xlink" x="0px" y="0px"
	 viewBox="0 0 138.8 62" style="enable-background:new 0 0 138.8 62;" xml:space="preserve">
<style type="text/css">
	.st0{fill:#226D88;}
	.st1{fill-rule:evenodd;clip-rule:evenodd;fill:#3ABFF0;}
	.st2{fill:#FFFFFF;}
</style>
<path class="st0" d="M138.5,62H12.2C5.4,62-0.1,56.5-0.1,49.7V12.2c0-6.8,5.5-12.3,12.3-12.3h114.2c6.8,0,12.3,5.5,12.3,12.3v35.5
	L138.5,62z"/>
<path class="st1" d="M33.8,33.2c-0.3-0.2-1.9-0.9-2.2-1C31.4,32,31.2,32,31,32.3c-0.2,0.3-0.8,1-1,1.2c-0.2,0.2-0.4,0.2-0.7,0.1
	c-0.3-0.2-1.3-0.5-2.5-1.6c-0.9-0.8-1.6-1.9-1.8-2.2c-0.2-0.3,0-0.5,0.1-0.6c0.3-0.4,0.7-0.9,0.8-1.1c0.1-0.2,0.1-0.4,0-0.6
	c-0.1-0.2-0.7-1.7-1-2.3c-0.3-0.6-0.5-0.5-0.7-0.5c-0.2,0-0.4,0-0.6,0c-0.2,0-0.6,0.1-0.8,0.4c-0.3,0.3-1.1,1.1-1.1,2.6
	c0,1.6,1.1,3.1,1.3,3.3c0.2,0.2,2.2,3.4,5.4,4.8c0.8,0.3,1.3,0.5,1.8,0.7c0.8,0.2,1.4,0.2,2,0.1c0.6-0.1,1.9-0.8,2.1-1.5
	c0.3-0.7,0.3-1.4,0.2-1.5C34.4,33.4,34.2,33.3,33.8,33.2z M37,21.6c-2.4-2.4-5.6-3.7-8.9-3.7c-7,0-12.6,5.7-12.6,12.6
	c0,2.2,0.6,4.4,1.7,6.3l-1.8,6.5l6.7-1.8c1.8,1,3.9,1.5,6,1.5h0c7,0,12.6-5.7,12.6-12.6C40.7,27.2,39.4,24,37,21.6z"/>
<g>
	<path class="st2" d="M49.5,24.7c0,0.4,0,0.8-0.1,1s-0.3,0.5-0.5,0.7c-0.3,0.2-0.4,0.4-0.5,0.5c-0.1,0.1-0.2,0.2-0.2,0.4
		c0,0.1-0.1,0.2-0.1,0.4c0,0.5,0.2,0.8,0.7,0.8c0.2,0,0.4-0.1,0.6-0.2c0.1-0.1,0.2-0.3,0.2-0.6H51c0,0.6-0.2,1.1-0.6,1.4
		s-0.9,0.5-1.6,0.5c-0.7,0-1.2-0.2-1.6-0.5c-0.4-0.3-0.6-0.8-0.6-1.4c0-0.5,0.2-1,0.7-1.5l0.5-0.4c0.2-0.1,0.3-0.3,0.3-0.5
		c0.1-0.2,0.1-0.4,0.1-0.7H49.5z M49.7,23.2c0,0.2-0.1,0.4-0.2,0.5c-0.1,0.1-0.3,0.2-0.6,0.2c-0.2,0-0.4-0.1-0.6-0.2
		s-0.2-0.3-0.2-0.5c0-0.2,0.1-0.4,0.2-0.5c0.1-0.1,0.3-0.2,0.6-0.2s0.4,0.1,0.6,0.2C49.6,22.8,49.7,23,49.7,23.2z"/>
	<path class="st2" d="M56,24.7h-2.8v1.9h3.2v1.2h-4.7v-7h4.7v1.2h-3.2v1.7H56V24.7z"/>
	<path class="st2" d="M58.6,22.6l0,0.6c0.4-0.5,0.9-0.7,1.5-0.7c0.6,0,1,0.2,1.2,0.5c0.3,0.3,0.4,0.8,0.4,1.4v3.4h-1.4v-3.3
		c0-0.3-0.1-0.5-0.2-0.6s-0.3-0.2-0.6-0.2c-0.4,0-0.7,0.2-0.9,0.5v3.7h-1.4v-5.2H58.6z"/>
	<path class="st2" d="M65,25.1c0-0.8,0.2-1.5,0.5-1.9s0.9-0.7,1.5-0.7c0.6,0,1,0.2,1.3,0.6l0.1-0.5h1.2v7.2h-1.4v-2.4
		c-0.3,0.4-0.7,0.5-1.3,0.5c-0.6,0-1.1-0.2-1.5-0.7C65.2,26.6,65,26,65,25.1z M66.4,25.2c0,0.5,0.1,0.9,0.3,1.1
		c0.2,0.3,0.4,0.4,0.7,0.4c0.4,0,0.7-0.2,0.9-0.5v-2.1c-0.2-0.3-0.5-0.5-0.9-0.5c-0.3,0-0.6,0.1-0.7,0.4
		C66.5,24.2,66.4,24.6,66.4,25.2z"/>
	<path class="st2" d="M73.9,27.2c-0.3,0.4-0.8,0.6-1.4,0.6c-0.6,0-1-0.2-1.3-0.5c-0.3-0.3-0.4-0.8-0.4-1.4v-3.4h1.4v3.4
		c0,0.5,0.2,0.8,0.7,0.8c0.5,0,0.8-0.2,1-0.5v-3.7h1.4v5.2h-1.3L73.9,27.2z"/>
	<path class="st2" d="M78.7,27.8c-0.8,0-1.4-0.2-1.9-0.7c-0.5-0.5-0.7-1.1-0.7-1.9v-0.1c0-0.5,0.1-1,0.3-1.4c0.2-0.4,0.5-0.7,0.9-1
		c0.4-0.2,0.8-0.3,1.3-0.3c0.7,0,1.3,0.2,1.7,0.7c0.4,0.4,0.6,1.1,0.6,1.9v0.6h-3.3c0,0.3,0.2,0.6,0.4,0.8c0.2,0.2,0.5,0.3,0.9,0.3
		c0.5,0,1-0.2,1.3-0.6l0.7,0.8c-0.2,0.3-0.5,0.5-0.8,0.7C79.5,27.8,79.1,27.8,78.7,27.8z M78.5,23.6c-0.3,0-0.5,0.1-0.7,0.3
		s-0.3,0.5-0.3,0.8h1.9v-0.1c0-0.3-0.1-0.5-0.2-0.7C79,23.7,78.8,23.6,78.5,23.6z M78.6,20.4h1.5l-1.3,1.5h-1.1L78.6,20.4z"/>
	<path class="st2" d="M85.7,21.3v1.3h0.9v1h-0.9v2.6c0,0.2,0,0.3,0.1,0.4s0.2,0.1,0.4,0.1c0.2,0,0.3,0,0.4,0v1.1
		c-0.3,0.1-0.6,0.1-0.8,0.1c-1,0-1.5-0.5-1.5-1.5v-2.8h-0.8v-1h0.8v-1.3H85.7z"/>
	<path class="st2" d="M89.8,27.8c-0.8,0-1.4-0.2-1.9-0.7c-0.5-0.5-0.7-1.1-0.7-1.9v-0.1c0-0.5,0.1-1,0.3-1.4c0.2-0.4,0.5-0.7,0.9-1
		c0.4-0.2,0.8-0.3,1.3-0.3c0.7,0,1.3,0.2,1.7,0.7c0.4,0.4,0.6,1.1,0.6,1.9v0.6h-3.3c0,0.3,0.2,0.6,0.4,0.8c0.2,0.2,0.5,0.3,0.9,0.3
		c0.5,0,1-0.2,1.3-0.6l0.7,0.8c-0.2,0.3-0.5,0.5-0.8,0.7C90.6,27.8,90.2,27.8,89.8,27.8z M89.6,23.6c-0.3,0-0.5,0.1-0.7,0.3
		c-0.2,0.2-0.3,0.5-0.3,0.8h1.9v-0.1c0-0.3-0.1-0.5-0.2-0.7C90.1,23.7,89.9,23.6,89.6,23.6z"/>
	<path class="st2" d="M51.5,37c0,0.8-0.2,1.4-0.5,1.9s-0.9,0.7-1.5,0.7c-0.5,0-0.9-0.2-1.3-0.5v2.4h-1.4v-7.2h1.3l0,0.5
		c0.3-0.4,0.8-0.6,1.3-0.6c0.6,0,1.1,0.2,1.5,0.7C51.4,35.4,51.5,36.1,51.5,37L51.5,37z M50.1,36.9c0-0.5-0.1-0.9-0.3-1.1
		c-0.2-0.3-0.4-0.4-0.7-0.4c-0.4,0-0.7,0.2-0.9,0.5V38c0.2,0.3,0.5,0.5,0.9,0.5C49.8,38.5,50.1,38,50.1,36.9z"/>
	<path class="st2" d="M52.2,36.9c0-0.5,0.1-1,0.3-1.4s0.5-0.7,0.9-0.9c0.4-0.2,0.8-0.3,1.3-0.3c0.7,0,1.3,0.2,1.7,0.6
		c0.4,0.4,0.7,1,0.7,1.7l0,0.4c0,0.8-0.2,1.4-0.7,1.9c-0.4,0.5-1,0.7-1.8,0.7c-0.7,0-1.3-0.2-1.8-0.7C52.4,38.4,52.2,37.8,52.2,36.9
		L52.2,36.9z M53.6,37c0,0.5,0.1,0.9,0.3,1.1c0.2,0.3,0.5,0.4,0.8,0.4c0.3,0,0.6-0.1,0.8-0.4c0.2-0.3,0.3-0.7,0.3-1.2
		c0-0.5-0.1-0.9-0.3-1.1c-0.2-0.3-0.5-0.4-0.8-0.4c-0.3,0-0.6,0.1-0.8,0.4S53.6,36.4,53.6,37z"/>
	<path class="st2" d="M57.7,36.9c0-0.8,0.2-1.5,0.5-1.9s0.9-0.7,1.5-0.7c0.5,0,0.9,0.2,1.3,0.6v-2.6h1.4v7.4h-1.3L61.1,39
		c-0.3,0.4-0.8,0.6-1.3,0.6c-0.6,0-1.1-0.2-1.5-0.7S57.7,37.8,57.7,36.9z M59.1,37c0,0.5,0.1,0.9,0.3,1.1s0.4,0.4,0.7,0.4
		c0.4,0,0.7-0.2,0.9-0.5v-2.1c-0.2-0.4-0.5-0.5-0.9-0.5C59.5,35.4,59.1,35.9,59.1,37z"/>
	<path class="st2" d="M65.9,39.6c-0.8,0-1.4-0.2-1.9-0.7c-0.5-0.5-0.7-1.1-0.7-1.9v-0.1c0-0.5,0.1-1,0.3-1.4s0.5-0.7,0.9-1
		c0.4-0.2,0.8-0.3,1.3-0.3c0.7,0,1.3,0.2,1.7,0.7c0.4,0.4,0.6,1.1,0.6,1.9v0.6h-3.3c0,0.3,0.2,0.6,0.4,0.8s0.5,0.3,0.9,0.3
		c0.5,0,1-0.2,1.3-0.6l0.7,0.8c-0.2,0.3-0.5,0.5-0.8,0.7C66.7,39.6,66.3,39.6,65.9,39.6z M65.7,35.4c-0.3,0-0.5,0.1-0.7,0.3
		c-0.2,0.2-0.3,0.5-0.3,0.8h1.9v-0.1c0-0.3-0.1-0.5-0.2-0.7C66.2,35.5,66,35.4,65.7,35.4z"/>
	<path class="st2" d="M70.1,34.3l0,0.6c0.4-0.5,0.9-0.7,1.5-0.7c0.7,0,1.1,0.3,1.4,0.8c0.4-0.5,0.9-0.8,1.6-0.8c0.6,0,1,0.2,1.3,0.5
		c0.3,0.3,0.4,0.8,0.4,1.5v3.3h-1.4v-3.3c0-0.3-0.1-0.5-0.2-0.6c-0.1-0.1-0.3-0.2-0.6-0.2c-0.4,0-0.7,0.2-0.9,0.6l0,3.6h-1.4v-3.3
		c0-0.3-0.1-0.5-0.2-0.7c-0.1-0.1-0.3-0.2-0.6-0.2c-0.4,0-0.7,0.2-0.9,0.5v3.7h-1.4v-5.2H70.1z"/>
	<path class="st2" d="M77.1,36.9c0-0.5,0.1-1,0.3-1.4s0.5-0.7,0.9-0.9s0.8-0.3,1.3-0.3c0.7,0,1.3,0.2,1.7,0.6s0.7,1,0.7,1.7l0,0.4
		c0,0.8-0.2,1.4-0.7,1.9s-1,0.7-1.8,0.7s-1.3-0.2-1.8-0.7C77.3,38.4,77.1,37.8,77.1,36.9L77.1,36.9z M78.5,37c0,0.5,0.1,0.9,0.3,1.1
		c0.2,0.3,0.5,0.4,0.8,0.4c0.3,0,0.6-0.1,0.8-0.4s0.3-0.7,0.3-1.2c0-0.5-0.1-0.9-0.3-1.1c-0.2-0.3-0.5-0.4-0.8-0.4
		c-0.3,0-0.6,0.1-0.8,0.4S78.5,36.4,78.5,37z"/>
	<path class="st2" d="M85.7,38.1c0-0.2-0.1-0.3-0.3-0.4s-0.4-0.2-0.8-0.3c-1.2-0.3-1.9-0.8-1.9-1.6c0-0.5,0.2-0.8,0.6-1.2
		c0.4-0.3,0.9-0.5,1.5-0.5c0.7,0,1.2,0.2,1.6,0.5c0.4,0.3,0.6,0.7,0.6,1.2h-1.4c0-0.2-0.1-0.4-0.2-0.5c-0.1-0.1-0.3-0.2-0.6-0.2
		c-0.2,0-0.4,0.1-0.5,0.2s-0.2,0.2-0.2,0.4c0,0.2,0.1,0.3,0.2,0.4s0.4,0.2,0.7,0.2c0.3,0.1,0.6,0.1,0.9,0.2c0.7,0.3,1.1,0.7,1.1,1.4
		c0,0.5-0.2,0.9-0.6,1.1s-0.9,0.4-1.6,0.4c-0.4,0-0.8-0.1-1.2-0.2c-0.3-0.2-0.6-0.4-0.8-0.6c-0.2-0.3-0.3-0.6-0.3-0.9h1.3
		c0,0.2,0.1,0.4,0.3,0.6c0.2,0.1,0.4,0.2,0.7,0.2c0.3,0,0.5,0,0.6-0.2C85.6,38.4,85.7,38.3,85.7,38.1z"/>
	<path class="st2" d="M93.4,39.5c-0.1-0.1-0.1-0.3-0.1-0.5c-0.3,0.4-0.8,0.6-1.3,0.6c-0.5,0-0.9-0.1-1.3-0.4
		c-0.3-0.3-0.5-0.7-0.5-1.1c0-0.5,0.2-1,0.6-1.3s1-0.4,1.8-0.4h0.6v-0.3c0-0.2-0.1-0.4-0.2-0.6c-0.1-0.1-0.3-0.2-0.6-0.2
		c-0.2,0-0.4,0.1-0.5,0.2c-0.1,0.1-0.2,0.3-0.2,0.5h-1.4c0-0.3,0.1-0.6,0.3-0.8s0.4-0.5,0.8-0.6c0.3-0.1,0.7-0.2,1.1-0.2
		c0.6,0,1.1,0.2,1.5,0.5s0.6,0.8,0.6,1.4v2.3c0,0.5,0.1,0.9,0.2,1.1v0.1H93.4z M92.2,38.6c0.2,0,0.4,0,0.6-0.1
		c0.2-0.1,0.3-0.2,0.4-0.4v-0.9h-0.5c-0.7,0-1.1,0.2-1.1,0.7l0,0.1c0,0.2,0.1,0.3,0.2,0.4C91.9,38.5,92,38.6,92.2,38.6z"/>
	<path class="st2" d="M97.5,37.6l1-3.2h1.5l-2.1,6l-0.1,0.3c-0.3,0.7-0.8,1-1.5,1c-0.2,0-0.4,0-0.6-0.1v-1.1l0.2,0
		c0.3,0,0.5,0,0.6-0.1c0.1-0.1,0.2-0.2,0.3-0.4l0.2-0.4L95,34.3h1.5L97.5,37.6z"/>
	<path class="st2" d="M103.6,39c-0.3,0.4-0.8,0.6-1.4,0.6c-0.6,0-1-0.2-1.3-0.5c-0.3-0.3-0.4-0.8-0.4-1.4v-3.4h1.4v3.4
		c0,0.5,0.2,0.8,0.7,0.8c0.5,0,0.8-0.2,1-0.5v-3.7h1.4v5.2h-1.3L103.6,39z"/>
	<path class="st2" d="M105.8,36.9c0-0.8,0.2-1.5,0.5-1.9s0.9-0.7,1.5-0.7c0.5,0,0.9,0.2,1.3,0.6v-2.6h1.4v7.4h-1.3l-0.1-0.6
		c-0.3,0.4-0.8,0.6-1.3,0.6c-0.6,0-1.1-0.2-1.5-0.7C106,38.4,105.8,37.8,105.8,36.9z M107.2,37c0,0.5,0.1,0.9,0.3,1.1
		c0.2,0.3,0.4,0.4,0.7,0.4c0.4,0,0.7-0.2,0.9-0.5v-2.1c-0.2-0.4-0.5-0.5-0.9-0.5C107.5,35.4,107.2,35.9,107.2,37z"/>
	<path class="st2" d="M114.5,39.5c-0.1-0.1-0.1-0.3-0.1-0.5c-0.3,0.4-0.8,0.6-1.3,0.6c-0.5,0-0.9-0.1-1.3-0.4
		c-0.3-0.3-0.5-0.7-0.5-1.1c0-0.5,0.2-1,0.6-1.3c0.4-0.3,1-0.4,1.8-0.4h0.6v-0.3c0-0.2-0.1-0.4-0.2-0.6c-0.1-0.1-0.3-0.2-0.6-0.2
		c-0.2,0-0.4,0.1-0.5,0.2c-0.1,0.1-0.2,0.3-0.2,0.5h-1.4c0-0.3,0.1-0.6,0.3-0.8s0.4-0.5,0.8-0.6c0.3-0.1,0.7-0.2,1.1-0.2
		c0.6,0,1.1,0.2,1.5,0.5s0.6,0.8,0.6,1.4v2.3c0,0.5,0.1,0.9,0.2,1.1v0.1H114.5z M113.4,38.6c0.2,0,0.4,0,0.6-0.1
		c0.2-0.1,0.3-0.2,0.4-0.4v-0.9h-0.5c-0.7,0-1.1,0.2-1.1,0.7l0,0.1c0,0.2,0.1,0.3,0.2,0.4C113,38.5,113.2,38.6,113.4,38.6z"/>
	<path class="st2" d="M119.7,35.6c-0.2,0-0.4,0-0.5,0c-0.5,0-0.9,0.2-1,0.5v3.4h-1.4v-5.2h1.3l0,0.6c0.3-0.5,0.7-0.7,1.2-0.7
		c0.2,0,0.3,0,0.4,0.1L119.7,35.6z"/>
	<path class="st2" d="M121.5,37.4c0-0.4,0.1-0.8,0.2-1.1c0.1-0.3,0.3-0.5,0.6-0.8c0.3-0.3,0.5-0.5,0.6-0.6c0.1-0.2,0.1-0.3,0.1-0.5
		c0-0.5-0.2-0.8-0.7-0.8c-0.2,0-0.4,0.1-0.6,0.2c-0.1,0.1-0.2,0.3-0.2,0.6h-1.4c0-0.6,0.2-1.1,0.6-1.4s0.9-0.5,1.6-0.5
		c0.7,0,1.2,0.2,1.6,0.5s0.6,0.8,0.6,1.4c0,0.3-0.1,0.5-0.2,0.8c-0.1,0.2-0.3,0.5-0.6,0.8l-0.4,0.4c-0.2,0.2-0.4,0.5-0.4,0.8l0,0.3
		H121.5z M121.4,38.9c0-0.2,0.1-0.4,0.2-0.5c0.1-0.1,0.3-0.2,0.6-0.2c0.2,0,0.4,0.1,0.6,0.2c0.1,0.1,0.2,0.3,0.2,0.5
		c0,0.2-0.1,0.4-0.2,0.5c-0.1,0.1-0.3,0.2-0.6,0.2s-0.4-0.1-0.6-0.2C121.5,39.3,121.4,39.1,121.4,38.9z"/>
</g>
</svg>
