<?xml version="1.0" encoding="utf-8"?>
<!-- Generator: Adobe Illustrator 24.3.0, SVG Export Plug-In . SVG Version: 6.00 Build 0)  -->
<svg version="1.1" id="Capa_1" xmlns="http://www.w3.org/2000/svg" xmlns:xlink="http://www.w3.org/1999/xlink" x="0px" y="0px"
	 viewBox="0 0 116.6 40.1" style="enable-background:new 0 0 116.6 40.1;" xml:space="preserve">
<style type="text/css">
	.st0{fill:#FF7822;}
	.st1{fill:#FFFFFF;}
</style>
<path class="st0" d="M96.1,40.2H20.3C9.1,40.2,0,31.2,0,20.1C0,9,9.1,0,20.3,0h75.9c11.2,0,20.2,9,20.2,20.1
	C116.4,31.2,107.3,40.2,96.1,40.2z"/>
<path class="st1" d="M96.1,37.4H20.3c-9.6,0-17.4-7.8-17.4-17.3c0-9.5,7.8-17.3,17.4-17.3h75.9c9.6,0,17.4,7.8,17.4,17.3
	S105.7,37.4,96.1,37.4z M20.3,3.9C11.3,3.9,4,11.2,4,20.1c0,8.9,7.3,16.1,16.2,16.1h75.9c9,0,16.2-7.2,16.2-16.1
	c0-8.9-7.3-16.1-16.2-16.1H20.3z"/>
<path class="st1" d="M95.9,26.3c-0.2,0-0.4-0.1-0.5-0.2c-0.3-0.3-0.2-0.7,0.1-1l5.9-5.2l-5.9-5.2c-0.3-0.3-0.3-0.7-0.1-1
	c0.3-0.3,0.7-0.3,1-0.1l6.5,5.7c0.1,0.1,0.2,0.3,0.2,0.5c0,0.2-0.1,0.4-0.2,0.5l-6.5,5.7C96.2,26.3,96.1,26.3,95.9,26.3z"/>
<path class="st1" d="M21.5,22c-0.1,1.2-0.5,2.1-1.3,2.8c-0.8,0.7-1.8,1-3.1,1c-1.4,0-2.5-0.5-3.3-1.4c-0.8-0.9-1.2-2.2-1.2-3.9v-0.7
	c0-1,0.2-2,0.6-2.8c0.4-0.8,0.9-1.4,1.6-1.8c0.7-0.4,1.5-0.6,2.4-0.6c1.2,0,2.3,0.3,3,1c0.8,0.7,1.2,1.6,1.3,2.8h-2.2
	c-0.1-0.7-0.3-1.2-0.6-1.5c-0.3-0.3-0.8-0.5-1.5-0.5c-0.7,0-1.3,0.3-1.7,0.8c-0.4,0.5-0.6,1.4-0.6,2.5v0.8c0,1.2,0.2,2,0.5,2.6
	c0.4,0.5,0.9,0.8,1.7,0.8c0.7,0,1.2-0.2,1.5-0.5c0.3-0.3,0.5-0.8,0.6-1.5H21.5z M31.9,20.4c0,1.1-0.2,2-0.6,2.8
	c-0.4,0.8-0.9,1.4-1.6,1.9c-0.7,0.4-1.5,0.7-2.4,0.7c-0.9,0-1.7-0.2-2.4-0.6c-0.7-0.4-1.2-1-1.6-1.8c-0.4-0.8-0.6-1.7-0.6-2.8v-0.5
	c0-1.1,0.2-2,0.6-2.8c0.4-0.8,0.9-1.4,1.6-1.9c0.7-0.4,1.5-0.7,2.4-0.7c0.9,0,1.7,0.2,2.4,0.7c0.7,0.4,1.2,1.1,1.6,1.9
	c0.4,0.8,0.6,1.7,0.6,2.8V20.4z M29.6,19.9c0-1.1-0.2-2-0.6-2.6c-0.4-0.6-1-0.9-1.7-0.9c-0.7,0-1.3,0.3-1.7,0.9
	c-0.4,0.6-0.6,1.4-0.6,2.6v0.5c0,1.1,0.2,2,0.6,2.6c0.4,0.6,1,0.9,1.8,0.9c0.7,0,1.3-0.3,1.7-0.9c0.4-0.6,0.6-1.4,0.6-2.6V19.9z
	 M41,16.5h-3.3v9h-2.2v-9h-3.3v-1.8H41V16.5z M44.7,25.6h-2.2V14.7h2.2V25.6z M49.1,23.8h5.5v1.8h-8.2v-1.3l5.4-7.7h-5.3v-1.8h8.1
	V16L49.1,23.8z M62.2,23.3h-3.9l-0.7,2.2h-2.4l4-10.8h2.1l4.1,10.8H63L62.2,23.3z M58.9,21.5h2.7l-1.4-4.1L58.9,21.5z M70.4,21.6
	h-1.8v4h-2.2V14.7h4c1.3,0,2.3,0.3,3,0.9c0.7,0.6,1,1.4,1,2.4c0,0.7-0.2,1.4-0.5,1.9c-0.3,0.5-0.8,0.9-1.5,1.2l2.3,4.4v0.1h-2.4
	L70.4,21.6z M68.6,19.8h1.8c0.6,0,1-0.1,1.3-0.4c0.3-0.3,0.5-0.7,0.5-1.2c0-0.5-0.1-0.9-0.4-1.2c-0.3-0.3-0.7-0.4-1.3-0.4h-1.8V19.8
	z"/>
</svg>
