<?xml version="1.0" encoding="utf-8"?>
<!-- Generator: Adobe Illustrator 24.3.0, SVG Export Plug-In . SVG Version: 6.00 Build 0)  -->
<svg version="1.1" id="Capa_1" xmlns="http://www.w3.org/2000/svg" xmlns:xlink="http://www.w3.org/1999/xlink" x="0px" y="0px"
	 viewBox="0 0 151.6 40.1" style="enable-background:new 0 0 151.6 40.1;" xml:space="preserve">
<style type="text/css">
	.st0{fill:#EF772D;}
	.st1{fill:#FFFFFF;}
</style>
<path class="st0" d="M131.5,40H20C9,40,0,31.1,0,20.1C0,9.2,9,0.3,20,0.3h111.5c11,0,20,8.9,20,19.9C151.4,31.1,142.5,40,131.5,40z"
	/>
<g>
	<defs>
		<path id="SVGID_1_" d="M131.5,40H20C9,40,0,31.1,0,20.1C0,9.2,9,0.3,20,0.3h111.5c11,0,20,8.9,20,19.9
			C151.4,31.1,142.5,40,131.5,40z"/>
	</defs>
	<clipPath id="SVGID_2_">
		<use xlink:href="#SVGID_1_"  style="overflow:visible;"/>
	</clipPath>
</g>
<path class="st1" d="M20,4.2c-8.8,0-16,7.1-16,15.9c0,8.8,7.2,15.9,16,15.9h111.5c8.8,0,16-7.1,16-15.9c0-8.8-7.2-15.9-16-15.9H20z
	 M131.5,37.2H20c-9.5,0-17.2-7.7-17.2-17.1c0-9.4,7.7-17.1,17.2-17.1h111.5c9.5,0,17.2,7.7,17.2,17.1
	C148.6,29.5,140.9,37.2,131.5,37.2z"/>
<path class="st1" d="M134.1,24.3c-0.1,0.1-0.3,0.2-0.5,0.2c-0.4,0-0.7-0.3-0.6-0.7l0.5-7.7l-7.7,0.5c-0.4,0-0.7-0.3-0.7-0.6
	c0-0.4,0.3-0.7,0.6-0.7l8.5-0.5c0.2,0,0.4,0.1,0.5,0.2c0.1,0.1,0.2,0.3,0.2,0.5l-0.5,8.5C134.3,24,134.2,24.2,134.1,24.3z"/>
<path class="st1" d="M90.8,18.8h1.6c0.5,0,0.9-0.1,1.1-0.4c0.3-0.2,0.4-0.6,0.4-1c0-0.4-0.1-0.8-0.4-1c-0.2-0.3-0.6-0.4-1.1-0.4
	h-1.5V18.8z M92.4,20.3h-1.5v3.4h-1.9v-9.4h3.5c1.1,0,2,0.2,2.6,0.7c0.6,0.5,0.9,1.2,0.9,2.1c0,0.6-0.1,1.2-0.4,1.6
	c-0.3,0.4-0.7,0.8-1.3,1l2,3.8v0.1h-2.1L92.4,20.3z M82.5,20.3h2.3l-1.2-3.5L82.5,20.3z M85.3,21.8H82l-0.6,1.9h-2l3.5-9.4h1.8
	l3.5,9.4h-2L85.3,21.8z M78.2,23.7h-1.9v-9.4h1.9V23.7z M71,21.4l2.1-7h2.1L72,23.7h-2l-3.2-9.4h2.1L71,21.4z M65.8,23.7h-1.9
	l-3.8-6.2v6.2h-1.9v-9.4h1.9l3.8,6.2v-6.2h1.9V23.7z M56.4,19.7h-3.7v2.5h4.3v1.5h-6.3v-9.4h6.3V16h-4.3v2.2h3.7V19.7z"/>
<g>
	
		<rect x="122.8" y="19.7" transform="matrix(0.7071 -0.7071 0.7071 0.7071 23.334 97.2273)" class="st1" width="12.4" height="1.5"/>
</g>
</svg>
