<?xml version="1.0" encoding="utf-8"?>
<!-- Generator: Adobe Illustrator 24.3.0, SVG Export Plug-In . SVG Version: 6.00 Build 0)  -->
<svg version="1.1" id="Capa_1" xmlns="http://www.w3.org/2000/svg" xmlns:xlink="http://www.w3.org/1999/xlink" x="0px" y="0px"
	 viewBox="0 0 138.8 62" style="enable-background:new 0 0 138.8 62;" xml:space="preserve">
<style type="text/css">
	.st0{fill:#EF772D;}
	.st1{fill:#FFFFFF;}
	.st2{clip-path:url(#SVGID_2_);fill:#FFFFFF;}
</style>
<g>
	<path class="st0" d="M0.2,20.5c0-11.1,9-20.1,20.1-20.1h98.1c11.1,0,20.1,9,20.1,20.1v21.1c0,11.1-9,20.1-20.1,20.1H20.3
		c-11.1,0-20.1-9-20.1-20.1V20.5z"/>
	<path class="st1" d="M106.1,40.2c-0.3,0-0.5-0.1-0.8-0.1c-0.8,0-1.3,0.3-1.6,0.8v5.2h-2.1v-8h2l0.1,1c0.4-0.7,1-1.1,1.8-1.1
		c0.2,0,0.5,0,0.7,0.1L106.1,40.2z M96.4,44.7c0.3,0,0.6-0.1,0.9-0.2c0.3-0.1,0.5-0.3,0.6-0.6v-1.4H97c-1.1,0-1.6,0.4-1.7,1.1l0,0.1
		c0,0.3,0.1,0.5,0.3,0.7C95.8,44.6,96.1,44.7,96.4,44.7z M98.1,46.1c-0.1-0.2-0.2-0.4-0.2-0.7c-0.5,0.6-1.2,0.9-2,0.9
		c-0.8,0-1.4-0.2-1.9-0.7c-0.5-0.5-0.8-1-0.8-1.7c0-0.8,0.3-1.5,0.9-1.9c0.6-0.5,1.5-0.7,2.7-0.7h1v-0.5c0-0.4-0.1-0.7-0.3-0.9
		c-0.2-0.2-0.5-0.3-0.9-0.3c-0.4,0-0.6,0.1-0.8,0.3c-0.2,0.2-0.3,0.4-0.3,0.7h-2.1c0-0.5,0.1-0.9,0.4-1.3c0.3-0.4,0.7-0.7,1.2-0.9
		c0.5-0.2,1.1-0.3,1.8-0.3c1,0,1.8,0.2,2.3,0.7c0.6,0.5,0.9,1.2,0.9,2.1v3.5c0,0.8,0.1,1.3,0.3,1.7v0.1H98.1z M88.3,44.4h3.9v1.7
		h-6.6v-1.3l3.7-5h-3.6v-1.7h6.4v1.3L88.3,44.4z M81.8,36.1c0-0.3,0.1-0.6,0.3-0.8c0.2-0.2,0.5-0.3,0.9-0.3c0.4,0,0.7,0.1,0.9,0.3
		s0.3,0.5,0.3,0.8c0,0.3-0.1,0.6-0.3,0.8c-0.2,0.2-0.5,0.3-0.9,0.3c-0.4,0-0.6-0.1-0.9-0.3C81.9,36.7,81.8,36.4,81.8,36.1z
		 M84.1,46.1h-2.1v-8h2.1V46.1z M79.3,36.2v2h1.4v1.6h-1.4v4c0,0.3,0.1,0.5,0.2,0.6c0.1,0.1,0.3,0.2,0.6,0.2c0.2,0,0.4,0,0.6-0.1
		v1.6c-0.4,0.1-0.8,0.2-1.3,0.2c-1.5,0-2.3-0.8-2.3-2.3v-4.3H76v-1.6h1.2v-2H79.3z M70,42.2c0,0.8,0.1,1.3,0.4,1.7
		c0.3,0.4,0.7,0.6,1.2,0.6c0.5,0,0.9-0.2,1.2-0.6c0.3-0.4,0.4-1,0.4-1.9c0-0.7-0.1-1.3-0.4-1.7c-0.3-0.4-0.7-0.6-1.2-0.6
		c-0.5,0-0.9,0.2-1.2,0.6C70.1,40.8,70,41.4,70,42.2z M67.9,42.1c0-0.8,0.2-1.5,0.5-2.1c0.3-0.6,0.7-1.1,1.3-1.4
		c0.6-0.3,1.2-0.5,2-0.5c1.1,0,2,0.3,2.6,1c0.7,0.7,1.1,1.6,1.1,2.7l0,0.5c0,1.2-0.3,2.2-1,2.9c-0.7,0.7-1.6,1.1-2.7,1.1
		s-2.1-0.4-2.8-1.1C68.2,44.4,67.9,43.4,67.9,42.1L67.9,42.1z M66.9,42.6c-0.1,1.2-0.5,2.1-1.3,2.7c-0.8,0.7-1.8,1-3,1
		c-1.4,0-2.5-0.5-3.2-1.4c-0.8-0.9-1.2-2.2-1.2-3.8v-0.7c0-1,0.2-1.9,0.5-2.7c0.4-0.8,0.9-1.4,1.6-1.8c0.7-0.4,1.5-0.6,2.4-0.6
		c1.2,0,2.2,0.3,3,1c0.8,0.7,1.2,1.6,1.3,2.8h-2.2c-0.1-0.7-0.2-1.2-0.6-1.5c-0.3-0.3-0.8-0.5-1.5-0.5c-0.7,0-1.3,0.3-1.7,0.8
		c-0.4,0.5-0.6,1.3-0.6,2.5v0.8c0,1.2,0.2,2,0.5,2.5c0.4,0.5,0.9,0.8,1.7,0.8c0.7,0,1.2-0.2,1.5-0.5c0.3-0.3,0.5-0.8,0.6-1.5H66.9z
		 M117.8,27.1c0.3,0,0.6-0.1,0.9-0.2c0.3-0.1,0.5-0.3,0.6-0.6v-1.4h-0.8c-1.1,0-1.6,0.4-1.7,1.1l0,0.1c0,0.3,0.1,0.5,0.3,0.7
		C117.2,27,117.5,27.1,117.8,27.1z M119.5,28.5c-0.1-0.2-0.2-0.4-0.2-0.7c-0.5,0.6-1.2,0.9-2,0.9c-0.8,0-1.4-0.2-1.9-0.7
		c-0.5-0.5-0.8-1-0.8-1.7c0-0.8,0.3-1.5,0.9-1.9c0.6-0.5,1.5-0.7,2.7-0.7h1v-0.5c0-0.4-0.1-0.7-0.3-0.9c-0.2-0.2-0.5-0.3-0.9-0.3
		c-0.4,0-0.6,0.1-0.8,0.3c-0.2,0.2-0.3,0.4-0.3,0.7h-2.1c0-0.5,0.1-0.9,0.4-1.3c0.3-0.4,0.7-0.7,1.2-0.9c0.5-0.2,1.1-0.3,1.8-0.3
		c1,0,1.8,0.2,2.3,0.7c0.6,0.5,0.9,1.2,0.9,2.1v3.5c0,0.8,0.1,1.3,0.3,1.7v0.1H119.5z M114.1,22.6c-0.3,0-0.5-0.1-0.8-0.1
		c-0.8,0-1.3,0.3-1.6,0.8v5.2h-2.1v-8h2l0.1,1c0.4-0.7,1-1.1,1.8-1.1c0.2,0,0.5,0,0.7,0.1L114.1,22.6z M104.4,27.1
		c0.3,0,0.6-0.1,0.9-0.2c0.3-0.1,0.5-0.3,0.6-0.6v-1.4h-0.8c-1.1,0-1.6,0.4-1.7,1.1l0,0.1c0,0.3,0.1,0.5,0.3,0.7
		C103.8,27,104.1,27.1,104.4,27.1z M106.2,28.5c-0.1-0.2-0.2-0.4-0.2-0.7c-0.5,0.6-1.2,0.9-2,0.9c-0.8,0-1.4-0.2-1.9-0.7
		c-0.5-0.5-0.8-1-0.8-1.7c0-0.8,0.3-1.5,0.9-1.9c0.6-0.5,1.5-0.7,2.7-0.7h1v-0.5c0-0.4-0.1-0.7-0.3-0.9c-0.2-0.2-0.5-0.3-0.9-0.3
		c-0.4,0-0.6,0.1-0.8,0.3c-0.2,0.2-0.3,0.4-0.3,0.7h-2.1c0-0.5,0.1-0.9,0.4-1.3c0.3-0.4,0.7-0.7,1.2-0.9c0.5-0.2,1.1-0.3,1.8-0.3
		c1,0,1.8,0.2,2.3,0.7c0.6,0.5,0.9,1.2,0.9,2.1v3.5c0,0.8,0.1,1.3,0.3,1.7v0.1H106.2z M98.1,24.5c0-0.7-0.1-1.3-0.4-1.7
		c-0.3-0.4-0.6-0.6-1.1-0.6c-0.7,0-1.1,0.3-1.4,0.8v3.3c0.3,0.5,0.7,0.8,1.4,0.8C97.6,27,98.1,26.1,98.1,24.5z M100.2,24.6
		c0,1.2-0.3,2.2-0.8,3c-0.6,0.7-1.3,1.1-2.3,1.1c-0.8,0-1.5-0.3-2-0.8v3.8H93v-11h2l0.1,0.8c0.5-0.6,1.2-0.9,2-0.9
		c1,0,1.7,0.4,2.3,1.1c0.5,0.7,0.8,1.7,0.8,3V24.6z M84.1,27.1c0.3,0,0.6-0.1,0.9-0.2c0.3-0.1,0.5-0.3,0.6-0.6v-1.4h-0.8
		c-1.1,0-1.6,0.4-1.7,1.1l0,0.1c0,0.3,0.1,0.5,0.3,0.7C83.5,27,83.7,27.1,84.1,27.1z M85.8,28.5c-0.1-0.2-0.2-0.4-0.2-0.7
		c-0.5,0.6-1.2,0.9-2,0.9c-0.8,0-1.4-0.2-1.9-0.7c-0.5-0.5-0.8-1-0.8-1.7c0-0.8,0.3-1.5,0.9-1.9c0.6-0.5,1.5-0.7,2.7-0.7h1v-0.5
		c0-0.4-0.1-0.7-0.3-0.9C85,22.1,84.7,22,84.3,22c-0.4,0-0.6,0.1-0.8,0.3c-0.2,0.2-0.3,0.4-0.3,0.7h-2.1c0-0.5,0.1-0.9,0.4-1.3
		c0.3-0.4,0.7-0.7,1.2-0.9c0.5-0.2,1.1-0.3,1.8-0.3c1,0,1.8,0.2,2.3,0.7c0.6,0.5,0.9,1.2,0.9,2.1v3.5c0,0.8,0.1,1.3,0.3,1.7v0.1
		H85.8z M78.7,17.3h2.3l-2,2.3h-1.7L78.7,17.3z M79.4,28.5h-2.1v-8h2.1V28.5z M73.4,27.7c-0.5,0.6-1.3,1-2.2,1c-0.9,0-1.5-0.2-2-0.7
		c-0.4-0.5-0.7-1.2-0.7-2.2v-5.2h2.1v5.1c0,0.8,0.4,1.2,1.1,1.2c0.7,0,1.2-0.3,1.5-0.8v-5.6h2.1v8h-2L73.4,27.7z M67,27.2
		c-0.4,0.5-1,0.8-1.7,1.1c-0.7,0.3-1.5,0.4-2.4,0.4c-0.9,0-1.7-0.2-2.4-0.6c-0.7-0.4-1.2-1-1.6-1.8c-0.4-0.8-0.6-1.7-0.6-2.7v-0.7
		c0-1.1,0.2-2,0.5-2.8c0.4-0.8,0.9-1.4,1.6-1.8c0.7-0.4,1.5-0.6,2.4-0.6c1.3,0,2.3,0.3,3,0.9c0.7,0.6,1.1,1.5,1.3,2.6h-2.2
		c-0.1-0.6-0.3-1.1-0.7-1.3c-0.3-0.3-0.8-0.4-1.4-0.4c-0.8,0-1.3,0.3-1.7,0.8c-0.4,0.6-0.6,1.4-0.6,2.5v0.7c0,1.1,0.2,2,0.6,2.5
		c0.4,0.6,1.1,0.9,1.9,0.9c0.8,0,1.4-0.2,1.8-0.5v-1.8h-2v-1.6H67V27.2z"/>
	<g>
		<defs>
			<path id="SVGID_1_" d="M2.2,22c0-10.6,8.6-19.1,19.1-19.1h95.5c10.6,0,19.1,8.6,19.1,19.1v18.6c0,10.6-8.6,19.1-19.1,19.1H21.3
				c-10.6,0-19.1-8.6-19.1-19.1V22z"/>
		</defs>
		<clipPath id="SVGID_2_">
			<use xlink:href="#SVGID_1_"  style="overflow:visible;"/>
		</clipPath>
		<path class="st2" d="M21.3,1.9c-11.1,0-20.1,9-20.1,20.1h2c0-10,8.1-18.1,18.1-18.1V1.9z M116.9,3.9c10,0,18.1,8.1,18.1,18.1h2
			c0-11.1-9-20.1-20.1-20.1V3.9z M135,40.6c0,10-8.1,18.1-18.1,18.1v2c11.1,0,20.1-9,20.1-20.1H135z M21.3,58.7
			c-10,0-18.1-8.1-18.1-18.1h-2c0,11.1,9,20.1,20.1,20.1V58.7z M3.2,40.6V22h-2v18.6H3.2z M116.9,58.7H21.3v2h95.5V58.7z M135,22
			v18.6h2V22H135z M21.3,3.9h95.5v-2H21.3V3.9z"/>
	</g>
	<path class="st1" d="M16.8,21.8c0-0.1,0-0.3,0.1-0.4c0.1-0.1,0.2-0.2,0.3-0.3c0.1-0.1,0.3-0.1,0.4,0c0.1,0,0.3,0.1,0.3,0.2
		c0.1,0.1,0.2,0.2,0.2,0.3c0,0.1,0,0.3,0,0.4c-0.1,0.1-0.1,0.2-0.3,0.3c-0.1,0.1-0.2,0.1-0.4,0.1c-0.2,0-0.4-0.1-0.5-0.2
		C16.9,22.2,16.8,22,16.8,21.8z M19.5,21.8c0-0.4-0.1-0.8-0.3-1.1c-0.2-0.3-0.5-0.6-0.9-0.8c-0.4-0.2-0.8-0.2-1.2-0.1
		c-0.4,0.1-0.8,0.3-1,0.6c-0.3,0.3-0.5,0.7-0.6,1c-0.1,0.4,0,0.8,0.1,1.2c0.2,0.4,0.4,0.7,0.8,0.9c0.3,0.2,0.7,0.3,1.1,0.3
		c0.5,0,1.1-0.2,1.4-0.6C19.3,22.9,19.5,22.4,19.5,21.8z"/>
	<path class="st1" d="M27.7,27.3c-1.1,0-2.1-0.3-3-0.9c-0.9-0.6-1.6-1.5-2-2.5c-0.4-1-0.5-2.1-0.3-3.2c0.2-1.1,0.7-2,1.5-2.8
		c0.8-0.8,1.7-1.3,2.8-1.5c1.1-0.2,2.2-0.1,3.2,0.3c1,0.4,1.9,1.1,2.5,2c0.6,0.9,0.9,2,0.9,3c0,1.4-0.6,2.8-1.6,3.9
		C30.6,26.7,29.2,27.3,27.7,27.3z M27.7,15c-1.3,0-2.7,0.4-3.8,1.2c-1.1,0.7-2,1.8-2.5,3.1c-0.5,1.2-0.7,2.6-0.4,3.9
		c0.3,1.3,0.9,2.5,1.9,3.5c1,1,2.2,1.6,3.5,1.9c1.3,0.3,2.7,0.1,3.9-0.4c1.2-0.5,2.3-1.4,3.1-2.5c0.7-1.1,1.2-2.4,1.2-3.8
		c0-1.8-0.7-3.5-2-4.8C31.3,15.7,29.5,15,27.7,15z"/>
	<path class="st1" d="M27.7,19.8c0.2,0,0.4,0.1,0.5,0.2c0.1,0.1,0.2,0.3,0.2,0.5c0,0.2,0.1,0.4,0.2,0.5s0.3,0.2,0.5,0.2
		c0.2,0,0.4-0.1,0.5-0.2c0.1-0.1,0.2-0.3,0.2-0.5c0-0.4-0.1-0.8-0.4-1.2c-0.2-0.3-0.6-0.6-1-0.7v-0.1c0-0.2-0.1-0.4-0.2-0.5
		s-0.3-0.2-0.5-0.2c-0.2,0-0.4,0.1-0.5,0.2s-0.2,0.3-0.2,0.5v0.1c-0.5,0.2-0.8,0.5-1.1,0.9c-0.2,0.4-0.3,0.9-0.3,1.4
		c0.1,0.5,0.3,0.9,0.7,1.2c0.4,0.3,0.8,0.5,1.3,0.5c0.1,0,0.3,0,0.4,0.1c0.1,0.1,0.2,0.2,0.3,0.3c0.1,0.1,0.1,0.3,0,0.4
		c0,0.1-0.1,0.3-0.2,0.3c-0.1,0.1-0.2,0.2-0.3,0.2c-0.1,0-0.3,0-0.4,0c-0.1-0.1-0.2-0.1-0.3-0.3c-0.1-0.1-0.1-0.2-0.1-0.4
		c0-0.2-0.1-0.4-0.2-0.5s-0.3-0.2-0.5-0.2c-0.2,0-0.4,0.1-0.5,0.2c-0.1,0.1-0.2,0.3-0.2,0.5c0,0.4,0.1,0.8,0.4,1.2
		c0.2,0.3,0.6,0.6,1,0.7v0.1c0,0.2,0.1,0.4,0.2,0.5s0.3,0.2,0.5,0.2c0.2,0,0.4-0.1,0.5-0.2s0.2-0.3,0.2-0.5v-0.1
		c0.5-0.2,0.8-0.5,1.1-0.9c0.2-0.4,0.3-0.9,0.3-1.4c-0.1-0.5-0.3-0.9-0.7-1.2c-0.4-0.3-0.8-0.5-1.3-0.5c-0.2,0-0.4-0.1-0.5-0.2
		s-0.2-0.3-0.2-0.5s0.1-0.4,0.2-0.5S27.6,19.8,27.7,19.8z"/>
	<path class="st1" d="M31.2,30H17.5c-0.2,0-0.4,0.1-0.5,0.2s-0.2,0.3-0.2,0.5c0,0.2,0.1,0.4,0.2,0.5s0.3,0.2,0.5,0.2h13.6
		c0.2,0,0.4-0.1,0.5-0.2c0.1-0.1,0.2-0.3,0.2-0.5c0-0.2-0.1-0.4-0.2-0.5C31.5,30.1,31.3,30,31.2,30z"/>
	<path class="st1" d="M31.2,32.7H17.5c-0.2,0-0.4,0.1-0.5,0.2s-0.2,0.3-0.2,0.5c0,0.2,0.1,0.4,0.2,0.5s0.3,0.2,0.5,0.2h13.6
		c0.2,0,0.4-0.1,0.5-0.2c0.1-0.1,0.2-0.3,0.2-0.5c0-0.2-0.1-0.4-0.2-0.5C31.5,32.8,31.3,32.7,31.2,32.7z"/>
	<path class="st1" d="M31.2,35.5H17.5c-0.2,0-0.4,0.1-0.5,0.2s-0.2,0.3-0.2,0.5c0,0.2,0.1,0.4,0.2,0.5s0.3,0.2,0.5,0.2h13.6
		c0.2,0,0.4-0.1,0.5-0.2c0.1-0.1,0.2-0.3,0.2-0.5c0-0.2-0.1-0.4-0.2-0.5C31.5,35.5,31.3,35.5,31.2,35.5z"/>
	<path class="st1" d="M31.2,38.2H17.5c-0.2,0-0.4,0.1-0.5,0.2s-0.2,0.3-0.2,0.5c0,0.2,0.1,0.4,0.2,0.5s0.3,0.2,0.5,0.2h13.6
		c0.2,0,0.4-0.1,0.5-0.2c0.1-0.1,0.2-0.3,0.2-0.5c0-0.2-0.1-0.4-0.2-0.5C31.5,38.3,31.3,38.2,31.2,38.2z"/>
	<path class="st1" d="M31.2,40.9H17.5c-0.2,0-0.4,0.1-0.5,0.2s-0.2,0.3-0.2,0.5c0,0.2,0.1,0.4,0.2,0.5s0.3,0.2,0.5,0.2h13.6
		c0.2,0,0.4-0.1,0.5-0.2c0.1-0.1,0.2-0.3,0.2-0.5c0-0.2-0.1-0.4-0.2-0.5C31.5,41,31.3,40.9,31.2,40.9z"/>
	<path class="st1" d="M38,40.9h-2.7c-0.2,0-0.4,0.1-0.5,0.2s-0.2,0.3-0.2,0.5c0,0.2,0.1,0.4,0.2,0.5s0.3,0.2,0.5,0.2H38
		c0.2,0,0.4-0.1,0.5-0.2s0.2-0.3,0.2-0.5c0-0.2-0.1-0.4-0.2-0.5S38.2,40.9,38,40.9z"/>
	<path class="st1" d="M31.2,43.7H17.5c-0.2,0-0.4,0.1-0.5,0.2c-0.1,0.1-0.2,0.3-0.2,0.5c0,0.2,0.1,0.4,0.2,0.5s0.3,0.2,0.5,0.2h13.6
		c0.2,0,0.4-0.1,0.5-0.2c0.1-0.1,0.2-0.3,0.2-0.5c0-0.2-0.1-0.4-0.2-0.5C31.5,43.7,31.3,43.7,31.2,43.7z"/>
	<path class="st1" d="M38,43.7h-2.7c-0.2,0-0.4,0.1-0.5,0.2c-0.1,0.1-0.2,0.3-0.2,0.5c0,0.2,0.1,0.4,0.2,0.5s0.3,0.2,0.5,0.2H38
		c0.2,0,0.4-0.1,0.5-0.2s0.2-0.3,0.2-0.5c0-0.2-0.1-0.4-0.2-0.5C38.3,43.7,38.2,43.7,38,43.7z"/>
	<path class="st1" d="M42.8,36.2L42.8,36.2l0-10.9h0c1.4,0,2.8,0.6,3.9,1.6c1,1,1.6,2.4,1.6,3.9c0,1.4-0.6,2.8-1.6,3.9
		C45.6,35.6,44.2,36.2,42.8,36.2z M37.3,30.7c0-1.2,0.4-2.4,1.1-3.3c0.7-1,1.8-1.6,2.9-1.9V36c-1.2-0.3-2.2-1-2.9-1.9
		C37.7,33.1,37.3,31.9,37.3,30.7z M42.8,23.9c-1.3,0-2.7,0.4-3.8,1.2c-1.1,0.7-2,1.8-2.5,3.1c-0.5,1.2-0.7,2.6-0.4,3.9
		c0.3,1.3,0.9,2.5,1.9,3.5c1,1,2.2,1.6,3.5,1.9c1.3,0.3,2.7,0.1,3.9-0.4c1.2-0.5,2.3-1.4,3.1-2.5c0.7-1.1,1.2-2.4,1.2-3.8
		c0-1.8-0.7-3.5-2-4.8C46.3,24.6,44.6,23.9,42.8,23.9z"/>
	<path class="st1" d="M52.3,50.7c0,0.1-0.1,0.2-0.2,0.3c-0.1,0.1-0.2,0.1-0.4,0.1c-0.1,0-0.3,0-0.4-0.1c-0.1-0.1-0.2-0.2-0.3-0.3
		l-2.9-6.1l1.2-0.6l2.9,6.1c0,0.1,0.1,0.2,0.1,0.3C52.3,50.5,52.3,50.6,52.3,50.7L52.3,50.7z M46.9,42.2l0.6-0.3h0h0l0.6-0.3
		l0.6,1.2l-1.2,0.6L46.9,42.2z M42.8,38.9c-1.6,0-3.2-0.5-4.5-1.4c-1.3-0.9-2.4-2.2-3-3.7c-0.6-1.5-0.8-3.1-0.5-4.7
		c0.3-1.6,1.1-3,2.2-4.2c1.1-1.1,2.6-1.9,4.2-2.2c1.6-0.3,3.2-0.2,4.7,0.5c1.5,0.6,2.8,1.7,3.7,3s1.4,2.9,1.4,4.5
		c0,2.2-0.9,4.3-2.4,5.8C47,38,44.9,38.9,42.8,38.9z M37.9,22.5c-0.1,0-0.3-0.1-0.4-0.2c-0.1-0.1-0.2-0.2-0.2-0.4
		c0-0.1,0-0.3,0.1-0.4c0.1-0.1,0.2-0.2,0.3-0.3c0.1-0.1,0.3-0.1,0.4-0.1c0.1,0,0.3,0.1,0.4,0.2c0.1,0.1,0.2,0.2,0.2,0.4
		c0,0.1,0,0.3,0,0.4l0,0C38.4,22.2,38.1,22.4,37.9,22.5z M41.4,48.2L40,49.5L38.5,48c-0.1-0.1-0.3-0.2-0.5-0.2
		c-0.2,0-0.3,0.1-0.5,0.2l-1.6,1.5L34.4,48c-0.1-0.1-0.3-0.2-0.5-0.2c-0.2,0-0.3,0.1-0.5,0.2l-1.6,1.5L30.3,48
		c-0.1-0.1-0.3-0.2-0.5-0.2s-0.3,0.1-0.5,0.2l-1.6,1.5L26.2,48c-0.1-0.1-0.3-0.2-0.5-0.2s-0.3,0.1-0.5,0.2l-1.6,1.5L22.1,48
		c-0.1-0.1-0.3-0.2-0.5-0.2c-0.2,0-0.3,0.1-0.5,0.2l-1.6,1.5L18,48c-0.1-0.1-0.3-0.2-0.5-0.2c-0.2,0-0.3,0.1-0.5,0.2l-1.6,1.5
		l-1.4-1.3V13h27.3v8.3c-0.5,0.1-0.9,0.2-1.4,0.3c0-0.3-0.2-0.6-0.4-0.9s-0.4-0.5-0.7-0.6c-0.3-0.2-0.6-0.2-1-0.2
		c-0.3,0-0.7,0.1-0.9,0.2c-0.3,0.2-0.5,0.4-0.7,0.7s-0.3,0.6-0.3,0.9c0,0.3,0,0.7,0.1,1c0.1,0.3,0.3,0.6,0.6,0.8
		c-1.1,0.9-2,2.1-2.6,3.3c-0.6,1.3-0.9,2.7-0.9,4.1c0,1.4,0.4,2.8,1,4.1c0.6,1.3,1.5,2.4,2.7,3.3h-1.6c-0.2,0-0.4,0.1-0.5,0.2
		s-0.2,0.3-0.2,0.5c0,0.2,0.1,0.4,0.2,0.5s0.3,0.2,0.5,0.2H38c0.1,0,0.2,0,0.3-0.1c0.1-0.1,0.2-0.1,0.2-0.2c0.9,0.4,1.9,0.7,2.8,0.9
		V48.2z M53.5,49.5L50.3,43c0-0.1-0.1-0.2-0.1-0.2l-1.1-2.3c0-0.1-0.1-0.2-0.2-0.2c-0.1-0.1-0.1-0.1-0.2-0.1c-0.1,0-0.2,0-0.3,0
		c-0.1,0-0.2,0-0.3,0.1l-0.6,0.3L47,39.3c1.9-1,3.5-2.5,4.4-4.5c0.9-1.9,1.2-4.2,0.7-6.3c-0.5-2.1-1.7-4-3.4-5.3
		c-1.7-1.3-3.8-2.1-5.9-2.1h0v-8.9c0-0.2-0.1-0.4-0.2-0.5c-0.1-0.1-0.3-0.2-0.5-0.2H13.4c-0.2,0-0.4,0.1-0.5,0.2
		c-0.1,0.1-0.2,0.3-0.2,0.5v36.2c0,0.1,0,0.2,0.1,0.3c0,0.1,0.1,0.2,0.2,0.2l2,2c0.1,0.1,0.3,0.2,0.5,0.2c0.2,0,0.3-0.1,0.5-0.2
		l1.6-1.5l1.6,1.5c0.1,0.1,0.3,0.2,0.5,0.2c0.2,0,0.3-0.1,0.5-0.2l1.6-1.5l1.6,1.5c0.1,0.1,0.3,0.2,0.5,0.2s0.3-0.1,0.5-0.2l1.6-1.5
		l1.6,1.5c0.1,0.1,0.3,0.2,0.5,0.2s0.3-0.1,0.5-0.2l1.6-1.5l1.6,1.5c0.1,0.1,0.3,0.2,0.5,0.2c0.2,0,0.3-0.1,0.5-0.2l1.6-1.5l1.6,1.5
		c0.1,0.1,0.3,0.2,0.5,0.2c0.2,0,0.3-0.1,0.5-0.2l1.6-1.5l1.6,1.5c0.1,0.1,0.3,0.2,0.5,0.2c0.2,0,0.3-0.1,0.5-0.2l2-2
		c0.1-0.1,0.1-0.1,0.2-0.2c0-0.1,0.1-0.2,0.1-0.3v-8.3h0c1,0,2-0.2,3-0.5l0.6,1.2l-0.6,0.3c-0.2,0.1-0.3,0.2-0.3,0.4
		c-0.1,0.2,0,0.4,0,0.5l4.4,9.1c0.2,0.5,0.7,0.9,1.2,1c0.5,0.2,1.1,0.1,1.6-0.1c0.5-0.2,0.9-0.7,1-1.2C53.7,50.6,53.7,50,53.5,49.5
		L53.5,49.5z"/>
</g>
</svg>
