<?xml version="1.0" encoding="utf-8"?>
<!-- Generator: Adobe Illustrator 24.3.0, SVG Export Plug-In . SVG Version: 6.00 Build 0)  -->
<svg version="1.1" id="Capa_1" xmlns="http://www.w3.org/2000/svg" xmlns:xlink="http://www.w3.org/1999/xlink" x="0px" y="0px"
	 viewBox="0 0 138.8 62" style="enable-background:new 0 0 138.8 62;" xml:space="preserve">
<style type="text/css">
	.st0{fill:#EF772D;}
	.st1{fill:#FFFFFF;}
	.st2{clip-path:url(#SVGID_2_);fill:#FFFFFF;}
</style>
<path class="st0" d="M0.3,20.4c0-11.1,9-20.1,20.1-20.1h98.3c11.1,0,20.1,9,20.1,20.1v21.1c0,11.1-9,20.1-20.1,20.1H20.4
	c-11.1,0-20.1-9-20.1-20.1V20.4z"/>
<path class="st1" d="M105,41.6c0,0.8,0.1,1.3,0.4,1.7c0.3,0.4,0.7,0.6,1.2,0.6c0.5,0,0.9-0.2,1.2-0.6c0.3-0.4,0.4-1,0.4-1.9
	c0-0.7-0.1-1.3-0.4-1.7c-0.3-0.4-0.7-0.6-1.2-0.6c-0.5,0-0.9,0.2-1.2,0.6C105.2,40.1,105,40.8,105,41.6z M102.9,41.4
	c0-0.8,0.2-1.5,0.5-2.1c0.3-0.6,0.7-1.1,1.3-1.4c0.6-0.3,1.2-0.5,2-0.5c1.1,0,1.9,0.3,2.6,1c0.7,0.7,1.1,1.5,1.1,2.7l0,0.5
	c0,1.2-0.3,2.2-1,2.9c-0.7,0.7-1.6,1.1-2.7,1.1s-2.1-0.4-2.7-1.1C103.2,43.8,102.9,42.8,102.9,41.4L102.9,41.4z M100.9,35.6v2h1.4
	v1.6h-1.4v4c0,0.3,0.1,0.5,0.2,0.6c0.1,0.1,0.3,0.2,0.6,0.2c0.2,0,0.4,0,0.6-0.1v1.6c-0.4,0.1-0.8,0.2-1.3,0.2
	c-1.5,0-2.2-0.8-2.3-2.3v-4.3h-1.2v-1.6h1.2v-2H100.9z M97,39.5c-0.3,0-0.5-0.1-0.8-0.1c-0.8,0-1.3,0.3-1.6,0.8v5.2h-2.1v-7.9h2
	l0.1,0.9c0.4-0.7,1-1.1,1.8-1.1c0.2,0,0.5,0,0.7,0.1L97,39.5z M87.8,39.1c-0.4,0-0.8,0.1-1,0.4c-0.3,0.3-0.4,0.7-0.5,1.2h3v-0.2
	c0-0.5-0.1-0.8-0.4-1.1C88.6,39.2,88.2,39.1,87.8,39.1z M88,45.6c-1.2,0-2.1-0.4-2.9-1.1c-0.7-0.7-1.1-1.7-1.1-2.9v-0.2
	c0-0.8,0.2-1.5,0.5-2.1c0.3-0.6,0.7-1.1,1.3-1.5c0.6-0.3,1.2-0.5,1.9-0.5c1.1,0,1.9,0.3,2.6,1c0.6,0.7,0.9,1.7,0.9,2.9v0.9h-5.1
	c0.1,0.5,0.3,0.9,0.6,1.2c0.3,0.3,0.8,0.5,1.3,0.5c0.8,0,1.5-0.3,1.9-0.9l1,1.2c-0.3,0.5-0.7,0.8-1.3,1.1
	C89.3,45.5,88.7,45.6,88,45.6z M80.9,41.4c0-0.7-0.1-1.3-0.4-1.7c-0.3-0.4-0.6-0.6-1.1-0.6c-0.7,0-1.1,0.3-1.4,0.8v3.3
	c0.3,0.5,0.7,0.8,1.4,0.8C80.4,43.9,80.9,43.1,80.9,41.4z M83,41.6c0,1.2-0.3,2.2-0.8,2.9c-0.6,0.7-1.3,1.1-2.2,1.1
	c-0.8,0-1.5-0.3-1.9-0.8v3.7h-2.1v-11h2l0.1,0.8c0.5-0.6,1.2-0.9,2-0.9c1,0,1.7,0.4,2.3,1.1s0.8,1.7,0.8,3V41.6z M71.3,39.9l1.3-2.4
	h2.3l-2.3,3.9l2.4,4.1h-2.3L71.3,43l-1.4,2.5h-2.3l2.4-4.1l-2.3-3.9H70L71.3,39.9z M66.4,40.9h-4.2v2.9h5v1.8h-7.2V34.8h7.2v1.8h-5
	v2.5h4.2V40.9z M113.2,27.9h-2.1V16.7h2.1V27.9z M106.3,21.6c-0.4,0-0.8,0.1-1,0.4c-0.3,0.3-0.4,0.7-0.5,1.2h3V23
	c0-0.5-0.1-0.8-0.4-1.1C107.1,21.7,106.7,21.6,106.3,21.6z M106.5,28.1c-1.2,0-2.1-0.4-2.9-1.1c-0.7-0.7-1.1-1.7-1.1-2.9V24
	c0-0.8,0.2-1.5,0.5-2.1c0.3-0.6,0.7-1.1,1.3-1.5c0.6-0.3,1.2-0.5,1.9-0.5c1.1,0,1.9,0.3,2.6,1c0.6,0.7,0.9,1.7,0.9,2.9v0.9h-5.1
	c0.1,0.5,0.3,0.9,0.6,1.2c0.3,0.3,0.8,0.5,1.3,0.5c0.8,0,1.5-0.3,1.9-0.9l1,1.2c-0.3,0.5-0.7,0.8-1.3,1.1
	C107.8,28,107.2,28.1,106.5,28.1z M96.2,24.1c0,0.7,0.1,1.3,0.4,1.7c0.3,0.4,0.6,0.6,1.1,0.6c0.7,0,1.1-0.3,1.4-0.8v-3.1
	c-0.3-0.6-0.7-0.8-1.4-0.8C96.7,21.6,96.2,22.4,96.2,24.1z M94.1,23.9c0-1.2,0.3-2.2,0.8-3c0.6-0.7,1.3-1.1,2.3-1.1
	c0.8,0,1.4,0.3,1.9,0.9v-4.1h2.1v11.3h-1.9l-0.1-0.8c-0.5,0.7-1.2,1-2,1c-0.9,0-1.7-0.4-2.3-1.1C94.3,26.2,94.1,25.2,94.1,23.9z
	 M85.4,26.5c0.3,0,0.6-0.1,0.9-0.2c0.3-0.1,0.5-0.3,0.6-0.6v-1.4h-0.8c-1.1,0-1.6,0.4-1.7,1.1l0,0.1c0,0.3,0.1,0.5,0.3,0.7
	C84.9,26.4,85.1,26.5,85.4,26.5z M87.2,27.9c-0.1-0.2-0.2-0.4-0.2-0.7c-0.5,0.6-1.2,0.9-2,0.9c-0.8,0-1.4-0.2-1.9-0.7
	c-0.5-0.5-0.8-1-0.8-1.7c0-0.8,0.3-1.5,0.9-1.9c0.6-0.5,1.5-0.7,2.7-0.7h1v-0.5c0-0.4-0.1-0.7-0.3-0.9c-0.2-0.2-0.5-0.3-0.9-0.3
	c-0.4,0-0.6,0.1-0.8,0.3c-0.2,0.2-0.3,0.4-0.3,0.7h-2.1c0-0.5,0.1-0.9,0.4-1.3s0.7-0.7,1.2-0.9c0.5-0.2,1.1-0.3,1.7-0.3
	c1,0,1.8,0.2,2.3,0.7c0.6,0.5,0.9,1.2,0.9,2.1v3.4c0,0.8,0.1,1.3,0.3,1.7v0.1H87.2z M80.1,16.8h2.3l-2,2.3h-1.7L80.1,16.8z
	 M80.7,27.9h-2.1V20h2.1V27.9z M74.8,27.1c-0.5,0.6-1.2,1-2.2,1c-0.9,0-1.5-0.2-2-0.7c-0.4-0.5-0.7-1.2-0.7-2.2V20h2.1v5.1
	c0,0.8,0.4,1.2,1.1,1.2c0.7,0,1.2-0.2,1.5-0.7V20h2.1v7.9h-2L74.8,27.1z M68.4,26.6c-0.4,0.5-1,0.8-1.7,1.1
	c-0.7,0.3-1.5,0.4-2.4,0.4c-0.9,0-1.7-0.2-2.4-0.6c-0.7-0.4-1.2-1-1.6-1.8c-0.4-0.8-0.6-1.7-0.6-2.7v-0.7c0-1.1,0.2-2,0.5-2.8
	c0.4-0.8,0.9-1.4,1.6-1.8c0.7-0.4,1.5-0.6,2.4-0.6c1.3,0,2.3,0.3,3,0.9c0.7,0.6,1.1,1.5,1.3,2.6h-2.1c-0.1-0.6-0.3-1.1-0.7-1.3
	c-0.3-0.3-0.8-0.4-1.4-0.4c-0.7,0-1.3,0.3-1.7,0.8c-0.4,0.6-0.6,1.4-0.6,2.5v0.7c0,1.1,0.2,2,0.6,2.5c0.4,0.6,1.1,0.9,1.9,0.9
	c0.8,0,1.4-0.2,1.8-0.5v-1.8h-2v-1.6h4.2V26.6z"/>
<g>
	<defs>
		<path id="SVGID_1_" d="M2.3,21.9c0-10.5,8.5-19.1,19.1-19.1h95.8c10.5,0,19.1,8.5,19.1,19.1v18.6c0,10.5-8.5,19.1-19.1,19.1H21.4
			C10.8,59.5,2.3,51,2.3,40.5V21.9z"/>
	</defs>
	<clipPath id="SVGID_2_">
		<use xlink:href="#SVGID_1_"  style="overflow:visible;"/>
	</clipPath>
	<path class="st2" d="M21.4,1.9c-11.1,0-20.1,9-20.1,20.1h2c0-10,8.1-18.1,18.1-18.1V1.9z M117.1,3.9c10,0,18.1,8.1,18.1,18.1h2
		c0-11.1-9-20.1-20.1-20.1V3.9z M135.2,40.5c0,10-8.1,18.1-18.1,18.1v2c11.1,0,20.1-9,20.1-20.1H135.2z M21.4,58.5
		c-10,0-18.1-8.1-18.1-18.1h-2c0,11.1,9,20.1,20.1,20.1V58.5z M3.3,40.5V21.9h-2v18.6H3.3z M117.1,58.5H21.4v2h95.8V58.5z
		 M135.2,21.9v18.6h2V21.9H135.2z M21.4,3.9h95.8v-2H21.4V3.9z"/>
</g>
<path class="st1" d="M44.4,33c-0.6-3.2-2.8-5.7-5.6-6.8c1.5-1,2.5-2.8,2.5-4.7c0-3.2-2.6-5.8-5.8-5.8c-3.2,0-5.8,2.6-5.8,5.8
	c0,2,1,3.7,2.5,4.7c-2.8,1.1-5,3.6-5.6,6.8c-2.5-2.5-3.9-5.7-3.9-9.1c0-6.8,6-12.9,12.9-12.9c6.8,0,12.9,6,12.9,12.9
	C48.3,27.3,46.9,30.6,44.4,33z M31.4,21.5c0-2.3,1.8-4.1,4.1-4.1c2.3,0,4.1,1.8,4.1,4.1c0,2.3-1.8,4.1-4.1,4.1
	C33.2,25.6,31.4,23.8,31.4,21.5z M35.5,36.8c-2.6,0-5.2-0.9-7.4-2.5c0.2-3.9,3.4-7,7.4-7c4,0,7.2,3.1,7.4,7
	C40.7,35.9,38.1,36.8,35.5,36.8z M35.5,9.5C27.7,9.5,21,16.2,21,24c0,7.7,6.7,14.5,14.5,14.5C43.3,38.5,50,31.6,50,24
	C50,16.2,43.2,9.5,35.5,9.5z"/>
<path class="st1" d="M37.2,47c-0.2,0.2-0.3,0.5-0.2,0.7l0.3,1.6l-1.4-0.8c-0.1-0.1-0.3-0.1-0.4-0.1s-0.3,0-0.4,0.1l-1.4,0.8l0.3-1.6
	c0-0.3,0-0.5-0.2-0.7l-1.2-1.1l1.6-0.2c0.3,0,0.5-0.2,0.6-0.5l0.7-1.4l0.7,1.4c0.1,0.2,0.4,0.4,0.6,0.5l1.6,0.2L37.2,47z M41,45
	c-0.1-0.3-0.4-0.5-0.7-0.6l-2.8-0.4l-1.3-2.6c-0.1-0.3-0.4-0.5-0.7-0.5c-0.3,0-0.6,0.2-0.7,0.5l-1.3,2.6l-2.8,0.4
	c-0.3,0-0.6,0.3-0.7,0.6c-0.1,0.3,0,0.6,0.2,0.8l2,2l-0.5,2.8c-0.1,0.3,0.1,0.6,0.3,0.8c0.3,0.2,0.6,0.2,0.9,0.1l2.5-1.3l2.5,1.3
	c0.3,0.1,0.6,0.1,0.9-0.1c0.3-0.2,0.4-0.5,0.3-0.8l-0.5-2.8l2-2C41,45.7,41.1,45.3,41,45z"/>
<path class="st1" d="M24.1,47c-0.2,0.2-0.3,0.5-0.2,0.7l0.3,1.6l-1.4-0.8c-0.1-0.1-0.3-0.1-0.4-0.1c-0.1,0-0.3,0-0.4,0.1l-1.4,0.8
	l0.3-1.6c0-0.3,0-0.5-0.2-0.7l-1.2-1.1l1.6-0.2c0.3,0,0.5-0.2,0.6-0.5l0.7-1.4l0.7,1.4c0.1,0.2,0.4,0.4,0.6,0.5l1.6,0.2L24.1,47z
	 M27.8,45c-0.1-0.3-0.4-0.5-0.7-0.6l-2.8-0.4L23,41.5c-0.1-0.3-0.4-0.5-0.7-0.5s-0.6,0.2-0.7,0.5l-1.3,2.6l-2.8,0.4
	c-0.3,0-0.6,0.3-0.7,0.6c-0.1,0.3,0,0.6,0.2,0.8l2,2l-0.5,2.8c-0.1,0.3,0.1,0.6,0.3,0.8c0.3,0.2,0.6,0.2,0.9,0.1l2.5-1.3l2.5,1.3
	c0.3,0.1,0.6,0.1,0.9-0.1c0.3-0.2,0.4-0.5,0.3-0.8l-0.5-2.8l2-2C27.8,45.7,27.9,45.3,27.8,45z"/>
<path class="st1" d="M50.4,47c-0.2,0.2-0.3,0.5-0.2,0.7l0.3,1.6L49,48.6c-0.1-0.1-0.3-0.1-0.4-0.1s-0.3,0-0.4,0.1l-1.4,0.8l0.3-1.6
	c0-0.3,0-0.5-0.2-0.7l-1.2-1.1l1.6-0.2c0.3,0,0.5-0.2,0.6-0.5l0.7-1.4l0.7,1.4c0.1,0.2,0.4,0.4,0.6,0.5l1.6,0.2L50.4,47z M54.1,45
	c-0.1-0.3-0.4-0.5-0.7-0.6l-2.8-0.4l-1.3-2.6c-0.1-0.3-0.4-0.5-0.7-0.5c-0.3,0-0.6,0.2-0.7,0.5l-1.3,2.6l-2.8,0.4
	c-0.3,0-0.6,0.3-0.7,0.6c-0.1,0.3,0,0.6,0.2,0.8l2,2l-0.5,2.8c-0.1,0.3,0.1,0.6,0.3,0.8c0.3,0.2,0.6,0.2,0.9,0.1l2.5-1.3l2.5,1.3
	c0.3,0.1,0.6,0.1,0.9-0.1c0.3-0.2,0.4-0.5,0.3-0.8l-0.5-2.8l2-2C54.2,45.7,54.2,45.3,54.1,45z"/>
</svg>
