<?xml version="1.0" encoding="utf-8"?>
<!-- Generator: Adobe Illustrator 24.3.0, SVG Export Plug-In . SVG Version: 6.00 Build 0)  -->
<svg version="1.1" id="Capa_1" xmlns="http://www.w3.org/2000/svg" xmlns:xlink="http://www.w3.org/1999/xlink" x="0px" y="0px"
	 viewBox="0 0 138.8 62" style="enable-background:new 0 0 138.8 62;" xml:space="preserve">
<style type="text/css">
	.st0{fill:#EF772D;}
	.st1{fill:#FFFFFF;}
	.st2{clip-path:url(#SVGID_2_);fill:#FFFFFF;}
</style>
<path class="st0" d="M0.3,19.8C0.3,9.1,9,0.3,19.7,0.3h99.7c10.7,0,19.4,8.7,19.4,19.4v22.4c0,10.7-8.7,19.4-19.4,19.4H19.7
	C9,61.6,0.3,52.9,0.3,42.2V19.8z"/>
<path class="st1" d="M104.7,43.7c0.3,0,0.6-0.1,0.8-0.2c0.3-0.1,0.4-0.3,0.6-0.5v-1.3h-0.8c-1,0-1.6,0.4-1.6,1.1l0,0.1
	c0,0.3,0.1,0.5,0.3,0.6C104.2,43.6,104.4,43.7,104.7,43.7z M106.5,45.1c-0.1-0.2-0.2-0.4-0.2-0.7c-0.5,0.6-1.1,0.8-1.9,0.8
	c-0.8,0-1.4-0.2-1.9-0.7c-0.5-0.4-0.7-1-0.7-1.7c0-0.8,0.3-1.4,0.9-1.9c0.6-0.4,1.5-0.7,2.6-0.7h0.9v-0.4c0-0.4-0.1-0.6-0.3-0.9
	c-0.2-0.2-0.5-0.3-0.9-0.3c-0.3,0-0.6,0.1-0.8,0.2c-0.2,0.2-0.3,0.4-0.3,0.7h-2.1c0-0.4,0.1-0.9,0.4-1.2c0.3-0.4,0.7-0.7,1.2-0.9
	c0.5-0.2,1.1-0.3,1.7-0.3c0.9,0,1.7,0.2,2.3,0.7c0.6,0.5,0.8,1.1,0.8,2v3.3c0,0.7,0.1,1.3,0.3,1.7v0.1H106.5z M97.6,43.6
	c0.4,0,0.7-0.1,0.9-0.3c0.2-0.2,0.4-0.5,0.4-0.8h1.9c0,0.5-0.1,1-0.4,1.4c-0.3,0.4-0.7,0.8-1.2,1c-0.5,0.2-1,0.4-1.6,0.4
	c-1.1,0-2-0.3-2.6-1c-0.6-0.7-1-1.7-1-2.9v-0.1c0-1.2,0.3-2.1,0.9-2.8c0.6-0.7,1.5-1.1,2.6-1.1c1,0,1.7,0.3,2.3,0.8
	c0.6,0.5,0.9,1.3,0.9,2.2h-1.9c0-0.4-0.1-0.7-0.4-1c-0.2-0.3-0.6-0.4-0.9-0.4c-0.5,0-0.8,0.2-1.1,0.5c-0.2,0.3-0.4,0.9-0.4,1.7v0.2
	c0,0.8,0.1,1.4,0.4,1.7C96.7,43.4,97.1,43.6,97.6,43.6z M90.5,35.4c0-0.3,0.1-0.6,0.3-0.8c0.2-0.2,0.5-0.3,0.8-0.3
	c0.4,0,0.6,0.1,0.8,0.3c0.2,0.2,0.3,0.5,0.3,0.8c0,0.3-0.1,0.6-0.3,0.8c-0.2,0.2-0.5,0.3-0.8,0.3c-0.3,0-0.6-0.1-0.8-0.3
	C90.6,36,90.5,35.7,90.5,35.4z M92.7,45.1h-2.1v-7.7h2.1V45.1z M84.2,37.4l0.1,0.9c0.6-0.7,1.3-1,2.2-1c0.8,0,1.4,0.2,1.8,0.7
	c0.4,0.5,0.6,1.2,0.6,2.2v5h-2.1v-4.9c0-0.4-0.1-0.8-0.3-0.9c-0.2-0.2-0.5-0.3-0.9-0.3c-0.6,0-1,0.2-1.3,0.7v5.4h-2.1v-7.7H84.2z
	 M77.9,43.6c0.4,0,0.7-0.1,0.9-0.3c0.2-0.2,0.4-0.5,0.4-0.8h1.9c0,0.5-0.1,1-0.4,1.4c-0.3,0.4-0.7,0.8-1.2,1c-0.5,0.2-1,0.4-1.6,0.4
	c-1.1,0-2-0.3-2.6-1c-0.6-0.7-1-1.7-1-2.9v-0.1c0-1.2,0.3-2.1,0.9-2.8c0.6-0.7,1.5-1.1,2.6-1.1c1,0,1.7,0.3,2.3,0.8
	c0.6,0.5,0.9,1.3,0.9,2.2h-1.9c0-0.4-0.1-0.7-0.4-1c-0.2-0.3-0.6-0.4-0.9-0.4c-0.5,0-0.8,0.2-1.1,0.5c-0.2,0.3-0.4,0.9-0.4,1.7v0.2
	c0,0.8,0.1,1.4,0.4,1.7C77.1,43.4,77.4,43.6,77.9,43.6z M70.3,34.1h2.2l-2,2.2h-1.7L70.3,34.1z M70.1,38.9c-0.4,0-0.7,0.1-1,0.4
	c-0.3,0.3-0.4,0.7-0.5,1.2h2.9v-0.2c0-0.5-0.1-0.8-0.4-1.1C70.9,39,70.6,38.9,70.1,38.9z M70.4,45.2c-1.1,0-2.1-0.3-2.8-1
	c-0.7-0.7-1.1-1.6-1.1-2.8v-0.2c0-0.8,0.1-1.5,0.4-2.1c0.3-0.6,0.7-1.1,1.3-1.4c0.6-0.3,1.2-0.5,1.9-0.5c1.1,0,1.9,0.3,2.5,1
	c0.6,0.7,0.9,1.6,0.9,2.8v0.8h-4.9c0.1,0.5,0.3,0.9,0.6,1.2c0.3,0.3,0.8,0.5,1.3,0.5c0.8,0,1.4-0.3,1.9-0.9l1,1.1
	c-0.3,0.4-0.7,0.8-1.3,1C71.6,45.1,71,45.2,70.4,45.2z M66.4,36.4h-3.2v8.6h-2.1v-8.6h-3.1v-1.7h8.4V36.4z M83.3,26.6
	c0.3,0,0.6-0.1,0.8-0.2c0.3-0.1,0.4-0.3,0.6-0.5v-1.3H84c-1,0-1.6,0.4-1.6,1.1l0,0.1c0,0.3,0.1,0.5,0.3,0.6
	C82.8,26.5,83,26.6,83.3,26.6z M85,28.1c-0.1-0.2-0.2-0.4-0.2-0.7c-0.5,0.6-1.1,0.8-1.9,0.8c-0.8,0-1.4-0.2-1.9-0.7
	c-0.5-0.4-0.7-1-0.7-1.7c0-0.8,0.3-1.4,0.9-1.9c0.6-0.4,1.5-0.7,2.6-0.7h0.9v-0.4c0-0.4-0.1-0.6-0.3-0.9c-0.2-0.2-0.5-0.3-0.9-0.3
	c-0.3,0-0.6,0.1-0.8,0.2c-0.2,0.2-0.3,0.4-0.3,0.7h-2.1c0-0.4,0.1-0.9,0.4-1.2c0.3-0.4,0.7-0.7,1.2-0.9c0.5-0.2,1.1-0.3,1.7-0.3
	c0.9,0,1.7,0.2,2.3,0.7c0.6,0.5,0.8,1.1,0.8,2v3.3c0,0.7,0.1,1.3,0.3,1.7v0.1H85z M78.2,17.2h2.2l-2,2.2h-1.7L78.2,17.2z M78.8,28.1
	h-2.1v-7.7h2.1V28.1z M73,27.3c-0.5,0.6-1.2,0.9-2.1,0.9c-0.8,0-1.5-0.2-1.9-0.7c-0.4-0.5-0.7-1.2-0.7-2.1v-5h2.1v5
	c0,0.8,0.4,1.2,1.1,1.2c0.7,0,1.2-0.2,1.4-0.7v-5.5H75v7.7h-1.9L73,27.3z M66.8,26.8c-0.4,0.5-0.9,0.8-1.6,1.1
	c-0.7,0.3-1.5,0.4-2.3,0.4c-0.9,0-1.7-0.2-2.4-0.6c-0.7-0.4-1.2-1-1.6-1.7c-0.4-0.7-0.6-1.6-0.6-2.6v-0.7c0-1,0.2-1.9,0.5-2.7
	c0.4-0.8,0.9-1.3,1.5-1.7c0.7-0.4,1.4-0.6,2.3-0.6c1.2,0,2.2,0.3,2.9,0.9c0.7,0.6,1.1,1.4,1.2,2.6h-2.1c-0.1-0.6-0.3-1-0.6-1.3
	c-0.3-0.3-0.8-0.4-1.3-0.4c-0.7,0-1.3,0.3-1.7,0.8c-0.4,0.5-0.6,1.4-0.6,2.4v0.7c0,1.1,0.2,1.9,0.6,2.5c0.4,0.6,1,0.8,1.8,0.8
	c0.8,0,1.4-0.2,1.7-0.5v-1.8h-1.9v-1.6h4.1V26.8z"/>
<g>
	<defs>
		<path id="SVGID_1_" d="M2.2,21.3c0-10.2,8.3-18.5,18.5-18.5h97.2c10.2,0,18.5,8.3,18.5,18.5v19.9c0,10.2-8.3,18.5-18.5,18.5H20.7
			c-10.2,0-18.5-8.3-18.5-18.5V21.3z"/>
	</defs>
	<clipPath id="SVGID_2_">
		<use xlink:href="#SVGID_1_"  style="overflow:visible;"/>
	</clipPath>
	<path class="st2" d="M20.7,1.8C10,1.8,1.2,10.5,1.2,21.3h1.9c0-9.7,7.8-17.5,17.5-17.5V1.8z M117.9,3.8c9.7,0,17.5,7.8,17.5,17.5
		h1.9c0-10.7-8.7-19.4-19.4-19.4V3.8z M135.4,41.2c0,9.7-7.8,17.5-17.5,17.5v1.9c10.7,0,19.4-8.7,19.4-19.4H135.4z M20.7,58.7
		c-9.7,0-17.5-7.8-17.5-17.5H1.2c0,10.7,8.7,19.4,19.4,19.4V58.7z M3.2,41.2V21.3H1.2v19.9H3.2z M117.9,58.7H20.7v1.9h97.2V58.7z
		 M135.4,21.3v19.9h1.9V21.3H135.4z M20.7,3.8h97.2V1.8H20.7V3.8z"/>
</g>
<path class="st1" d="M14.7,48.5h7.8v-35h-7.8V48.5z M22.6,50.3h-8.1c-0.9,0-1.7-0.8-1.7-1.7V13.2c0-0.9,0.8-1.7,1.7-1.7h8.1
	c0.9,0,1.7,0.8,1.7,1.7v35.4C24.3,49.6,23.5,50.3,22.6,50.3z"/>
<path class="st1" d="M18.6,46.3c0.8,0,1.5-0.7,1.5-1.5s-0.7-1.5-1.5-1.5s-1.5,0.7-1.5,1.5S17.8,46.3,18.6,46.3z"/>
<path class="st1" d="M34.7,25.9L27.9,22l3.6-6.2l6.7,3.9L34.7,25.9z M39.3,18.1l-7-4.1c-0.8-0.5-1.8-0.2-2.3,0.6l-4.1,7.2v3.7l1.1-2
	l6.7,3.9L30,34l-4.1-2.4v2.1l3.2,1.8l-3.2,5.5v3.7l14.1-24.4C40.4,19.6,40.1,18.6,39.3,18.1z"/>
<path class="st1" d="M41.4,35.8l-4.1-6.6l6.2-3.8l4.1,6.6L41.4,35.8z M49.2,31.3L45,24.3c-0.2-0.4-0.6-0.6-1-0.8
	c-0.4-0.1-0.9,0-1.3,0.2l-3.9,2.4l-2.6,4.8l3.6,5.9l-6.4,3.9L32,38.5l-1,1.9l0.8,1.3l-2.2,1.4l-1.8,3.3l20.9-12.8
	C49.4,33.1,49.7,32,49.2,31.3z"/>
<path class="st1" d="M42.9,48.7L42.8,41l7.2-0.1l0.1,7.8L42.9,48.7z M51.8,40.7c0-0.4-0.2-0.9-0.5-1.2C51,39.2,50.6,39,50.1,39
	l-6.7,0.1L40.2,41l0.7,0l0.1,7.8l-7.6,0.1l0-3.8l-1.8,1.1l0,2.8l-4.9,0.1l-3.2,1.9l26.7-0.3c0.9,0,1.7-0.8,1.7-1.7L51.8,40.7z"/>
</svg>
