<?xml version="1.0" encoding="utf-8"?>
<!-- Generator: Adobe Illustrator 24.3.0, SVG Export Plug-In . SVG Version: 6.00 Build 0)  -->
<svg version="1.1" id="Guías" xmlns="http://www.w3.org/2000/svg" xmlns:xlink="http://www.w3.org/1999/xlink" x="0px" y="0px"
	 viewBox="0 0 40 40" style="enable-background:new 0 0 40 40;" xml:space="preserve">
<style type="text/css">
	.st0{fill:#EF772F;}
</style>
<path class="st0" d="M35.39,28.42c0,3.86-3.14,7-7,7H11.65c-3.86,0-7-3.14-7-7V11.67c0-3.86,3.14-7,7-7h16.74c3.86,0,7,3.14,7,7
	L35.39,28.42L35.39,28.42z M28.39,1.36H11.65c-5.69,0-10.31,4.63-10.31,10.31v16.74c0,5.69,4.63,10.31,10.31,10.31h16.74
	c5.69,0,10.31-4.63,10.31-10.31V11.67C38.7,5.99,34.08,1.36,28.39,1.36z"/>
<path class="st0" d="M20.02,26.36c-3.48,0-6.31-2.83-6.31-6.31c0-3.48,2.83-6.31,6.31-6.31s6.31,2.83,6.31,6.31
	C26.33,23.53,23.5,26.36,20.02,26.36z M20.02,10.42c-5.31,0-9.63,4.32-9.63,9.63c0,5.31,4.32,9.63,9.63,9.63
	c5.31,0,9.63-4.32,9.63-9.63C29.65,14.74,25.33,10.42,20.02,10.42z"/>
<path class="st0" d="M30.05,7.61c-0.64,0-1.27,0.26-1.72,0.71c-0.45,0.45-0.71,1.08-0.71,1.72c0,0.64,0.26,1.27,0.71,1.72
	c0.45,0.45,1.08,0.71,1.72,0.71c0.64,0,1.27-0.26,1.72-0.71c0.45-0.45,0.71-1.08,0.71-1.72c0-0.64-0.26-1.27-0.71-1.72
	C31.32,7.87,30.69,7.61,30.05,7.61z"/>
</svg>
