<?xml version="1.0" encoding="utf-8"?>
<!-- Generator: Adobe Illustrator 24.3.0, SVG Export Plug-In . SVG Version: 6.00 Build 0)  -->
<svg version="1.1" id="Guías" xmlns="http://www.w3.org/2000/svg" xmlns:xlink="http://www.w3.org/1999/xlink" x="0px" y="0px"
	 viewBox="0 0 40 40" style="enable-background:new 0 0 40 40;" xml:space="preserve">
<style type="text/css">
	.st0{fill:#EF772F;}
</style>
<path class="st0" d="M31.26,29.82h-4.68v-7.54c0-1.89-0.68-3.19-2.37-3.19c-1.29,0-2.06,0.87-2.4,1.71
	c-0.12,0.3-0.15,0.72-0.15,1.14v7.87h-4.68c0,0,0.06-12.77,0-14.09h4.68v1.99c0.62-0.96,1.74-2.33,4.22-2.33
	c3.08,0,5.39,2.01,5.39,6.34V29.82z M12.03,13.81H12c-1.57,0-2.59-1.08-2.59-2.43c0-1.38,1.05-2.43,2.65-2.43
	c1.6,0,2.59,1.05,2.62,2.43C14.68,12.73,13.66,13.81,12.03,13.81z M14.37,29.82H9.69V15.74h4.68V29.82z M19.96,0.76
	C9.34,0.76,0.73,9.37,0.73,19.99c0,10.62,8.61,19.23,19.23,19.23c10.62,0,19.23-8.61,19.23-19.23C39.19,9.37,30.58,0.76,19.96,0.76z
	"/>
</svg>
