<?xml version="1.0" encoding="utf-8"?>
<!-- Generator: Adobe Illustrator 24.3.0, SVG Export Plug-In . SVG Version: 6.00 Build 0)  -->
<svg version="1.1" id="Capa_1" xmlns="http://www.w3.org/2000/svg" xmlns:xlink="http://www.w3.org/1999/xlink" x="0px" y="0px"
	 viewBox="0 0 519.2 420.6" style="enable-background:new 0 0 519.2 420.6;" xml:space="preserve">
<style type="text/css">
	.st0{fill:#5FFBFF;}
	.st1{fill:#55E9ED;}
	.st2{fill:#206C87;}
	.st3{fill:#FF7822;}
	.st4{fill:#FFFFFF;}
</style>
<g>
	<path class="st0" d="M141.1,67.6c-3.1-0.2-5.7-2.3-6.7-5.5c-1.4-4.5,1-9.8,5.4-11.6c4.6-1.9,9.2-3.8,14-5.6
		c4.5-1.7,9.1,0.7,10.4,5.2c1.3,4.6-1.3,9.7-5.7,11.4c-4.6,1.8-9,3.6-13.4,5.4C143.6,67.5,142.3,67.7,141.1,67.6z"/>
	<path class="st0" d="M395,39.8c-4.1-0.3-7.2-3.9-7.2-8.4c0.1-4.9,4-9.1,8.6-9.4c3.1-0.2,6.1-0.3,9.1-0.5c4.6-0.1,8.3,3.7,8.1,8.6
		c-0.2,4.9-4.1,9.1-8.7,9.3c-2.9,0.1-5.9,0.3-8.9,0.4C395.7,39.8,395.4,39.8,395,39.8z"/>
	<path class="st1" d="M346.7,193.2c0,0-248.3,61.1-272-24.1c0,0-3.3-22.6,20.6-46.1C124,94.6,63,109.7,38.7,141.6
		c-14.8,19.5-37,67.9,31.7,105c61.4,33.2,206.5,46.5,328.2-7.7L346.7,193.2z"/>
	<path class="st2" d="M157.2,226.1c-51-4-89.6-19.4-93.8-50.6c-3.6-26.1,19.4-55.9,64.7-83.8C170.7,65.4,228.9,42.9,292,28.3
		c23.3-5.4,46.5-9.5,68.9-12.2c4.6-0.5,8.5,2.9,8.7,7.8s-3.4,9.3-8.1,9.9c-21.9,2.7-44.5,6.7-67.2,11.9
		c-61.3,14.2-117.7,35.9-158.7,61.2c-37.3,23-58.1,47.2-55.7,64.7c3.9,28.1,69.4,48.8,183.3,31.8c4.7-0.7,8.6,2.7,8.9,7.6
		c0.3,4.9-3.2,9.4-7.8,10.1C227.4,226.6,189.8,228.7,157.2,226.1z"/>
	<path class="st2" d="M177.4,282.2c-27.8-2.2-53.5-7-76.3-14.3c-54.1-17.4-85-47.4-87.2-84.4c-2.5-42,33-86,97.3-120.8
		c4.3-2.3,9.2-0.6,11.1,3.8c1.9,4.4-0.1,9.8-4.4,12.1C61.5,109.2,28.9,147.5,30.8,181c1.7,29.2,29.5,54.5,76.3,69.6
		c49.7,16,114.8,19.3,183.5,9.3c14.9-2.2,29.8-5,44.3-8.3c4.6-1.1,8.9,2,9.5,6.8c0.7,4.9-2.6,9.6-7.2,10.7
		c-14.9,3.4-30.3,6.3-45.6,8.5C251.8,283.5,213,285,177.4,282.2z"/>
	<path class="st3" d="M437.3,387.5l-29.4-117.9l89.5-82.3c6.3-5.8,2.6-16.2-5.9-16.8l-121.3-8.4L319.5,51.6
		c-3.5-7.7-14.6-7.5-17.8,0.4l-45.5,112.7l-120.7,14c-8.4,1-11.6,11.6-5.1,17.1l93.1,78.1l-24,119.1c-1.7,8.3,7.4,14.6,14.6,10.1
		l103.1-64.4l105.9,59.6C430.5,402.5,439.3,395.8,437.3,387.5z"/>
</g>
<path class="st4" d="M382.8,253.8l-1.4-9.4l-4.6,9.4L382.8,253.8z M383.5,258.5l-9,0l-2.2,4.5l-6.1,0l12.9-25.3l6.8,0l4.5,25.3
	l-6.2,0L383.5,258.5z M342.7,250.4c0.4-2.5,1.3-4.7,2.6-6.7c1.4-2,3.1-3.5,5.1-4.6c2-1.1,4.2-1.7,6.5-1.7c2.9,0,5.2,0.8,6.9,2.4
	c1.8,1.6,2.8,3.7,3,6.5l-6.5,0c-0.3-1-0.9-1.8-1.7-2.3c-0.8-0.5-1.7-0.8-2.9-0.8c-1.8,0-3.4,0.7-4.7,2c-1.3,1.3-2.2,3-2.5,5.2
	c-0.1,0.7-0.2,1.3-0.2,1.8c0,1.7,0.5,3,1.3,4c0.9,1,2.1,1.5,3.7,1.5c1.1,0,2.2-0.3,3.1-0.8c1-0.6,1.8-1.4,2.5-2.4l6.5,0
	c-1.1,2.7-2.9,4.9-5.2,6.5c-2.3,1.6-4.9,2.3-7.8,2.4c-2.1,0-3.9-0.4-5.4-1.3c-1.5-0.8-2.7-2-3.5-3.6c-0.8-1.5-1.2-3.3-1.2-5.4
	C342.5,252.1,342.5,251.2,342.7,250.4z M341.5,237.7l-4.2,25.3l-5.9,0l4.2-25.3L341.5,237.7z M332.5,237.8l-0.8,4.9l-9.8,0l-0.9,5.4
	l7.3,0l-0.8,4.7l-7.3,0l-1.7,10.3l-5.9,0l4.2-25.3L332.5,237.8z M302.4,254l-1.4-9.4l-4.6,9.4L302.4,254z M303.1,258.7l-9,0
	l-2.2,4.5l-6.1,0l12.9-25.3l6.8,0l4.5,25.3l-6.2,0L303.1,258.7z M280.5,246.1c0-0.4,0.1-0.6,0.1-0.8c0-0.8-0.2-1.4-0.7-1.8
	c-0.5-0.4-1.1-0.6-2.1-0.6l-3.6,0l-1,6.3l3.6,0c1.1,0,1.9-0.3,2.5-0.8C279.9,247.9,280.3,247.1,280.5,246.1z M279,237.9
	c2.5,0,4.4,0.6,5.7,1.8c1.3,1.2,2,2.7,2,4.6c0,0.5,0,1.1-0.1,1.5c-0.3,1.7-1,3.2-2.1,4.5s-2.6,2.3-4.5,2.8l3.9,10l-6.6,0l-3.4-9.5
	h-1.4l-1.6,9.6l-5.9,0l4.2-25.3L279,237.9z M239.9,250.6c0.4-2.5,1.3-4.7,2.6-6.7c1.4-2,3.1-3.5,5.1-4.6c2-1.1,4.2-1.7,6.6-1.7
	c2.9,0,5.2,0.7,6.9,2.2c1.8,1.5,2.7,3.5,2.9,6.1l-6.5,0c-0.3-0.8-0.8-1.5-1.6-1.9c-0.7-0.5-1.6-0.7-2.7-0.7c-1.9,0-3.5,0.7-4.9,2
	c-1.3,1.3-2.2,3-2.6,5.2c-0.1,0.7-0.2,1.3-0.2,1.9c0,1.8,0.5,3.1,1.5,4.1c1,1,2.4,1.4,4.2,1.4c1.5,0,2.8-0.4,3.9-1.2
	c1.1-0.8,2-1.9,2.7-3.4l-7.4,0l0.7-4.5l12.8,0l-1,5.7c-0.7,1.5-1.7,3-2.9,4.3c-1.3,1.3-2.8,2.4-4.5,3.2c-1.7,0.8-3.6,1.2-5.6,1.2
	c-2.1,0-3.9-0.4-5.5-1.3c-1.6-0.9-2.8-2.1-3.6-3.6c-0.8-1.5-1.2-3.3-1.2-5.4C239.6,252.5,239.7,251.6,239.9,250.6z"/>
<path class="st1" d="M374.9,216.2l-2.4-15l-7.1,15.1L374.9,216.2z M376.1,223.6l-14.3,0.2l-3.4,7.2l-9.8,0.1l20.2-40.7l10.8-0.1
	l7.6,40.4l-9.9,0.1L376.1,223.6z M314.9,211.3c0.6-4,2-7.6,4.1-10.7c2.1-3.2,4.8-5.7,8.1-7.4c3.2-1.8,6.7-2.7,10.5-2.8
	c4.6-0.1,8.3,1.1,11.1,3.4c2.8,2.3,4.4,5.5,4.7,9.7l-10.3,0.1c-0.5-1.3-1.3-2.3-2.5-3c-1.2-0.7-2.6-1.1-4.3-1c-3,0-5.6,1.1-7.8,3.3
	c-2.1,2.1-3.5,4.9-4,8.4c-0.2,1.2-0.2,2.2-0.2,3c0,2.8,0.8,5,2.4,6.5c1.6,1.5,3.8,2.3,6.7,2.2c2.3,0,4.4-0.7,6.2-1.9
	c1.8-1.3,3.2-3.1,4.3-5.4l-11.8,0.2l1.1-7.2l20.3-0.3l-1.4,9.2c-1.1,2.5-2.6,4.8-4.6,6.9c-2,2.1-4.3,3.9-7.1,5.2
	c-2.8,1.3-5.7,2-8.9,2.1c-3.3,0-6.2-0.6-8.8-1.9c-2.5-1.4-4.4-3.2-5.8-5.7c-1.3-2.4-2-5.3-2.1-8.6
	C314.6,214.4,314.7,213,314.9,211.3z M302,199.1l-1.3,8.4l12.5-0.2l-1.2,7.5l-12.5,0.2l-1.4,9.1l14.2-0.2l-1.2,7.8l-23.5,0.3
	l6.3-40.6l23.5-0.3l-1.2,7.8L302,199.1z M291,191.4l-6.3,40.6l-9.3,0.1l3.8-24.3l-12.4,24.4l-7.5,0.1l-4.9-24.3l-3.8,24.4l-9.3,0.1
	l6.3-40.6l11-0.1l6.4,27.9l15-28.2L291,191.4z"/>
</svg>
