<?xml version="1.0" encoding="utf-8"?>
<!-- Generator: Adobe Illustrator 24.3.0, SVG Export Plug-In . SVG Version: 6.00 Build 0)  -->
<svg version="1.1" id="Capa_1" xmlns="http://www.w3.org/2000/svg" xmlns:xlink="http://www.w3.org/1999/xlink" x="0px" y="0px"
	 viewBox="0 0 450.1 126.7" style="enable-background:new 0 0 450.1 126.7;" xml:space="preserve">
<style type="text/css">
	.st0{fill:#FFFFFF;}
	.st1{fill:#FF7822;}
	.st2{fill:#A39D99;}
</style>
<g>
	<path class="st0" d="M9.5,49.1c0-11,8.9-19.9,19.9-19.9h277c11,0,19.9,8.9,19.9,19.9v5c0,11-8.9,19.9-19.9,19.9h-277
		c-11,0-19.9-8.9-19.9-19.9C9.5,54.1,9.5,49.1,9.5,49.1z"/>
	<path class="st1" d="M387.5,74.2H262.6c-12.4,0-22.4-10.2-22.4-22.7c0-12.6,10-22.7,22.4-22.7h124.9c12.4,0,22.4,10.2,22.4,22.7
		S399.9,74.2,387.5,74.2z"/>
	<path class="st0" d="M262.6,33.2c-9.9,0-18,8.2-18,18.2c0,10.1,8.1,18.2,18,18.2h124.9c9.9,0,18-8.2,18-18.2
		c0-10.1-8.1-18.2-18-18.2C387.5,33.2,262.6,33.2,262.6,33.2z M387.5,71H262.6c-10.6,0-19.2-8.8-19.2-19.5
		c0-10.8,8.6-19.5,19.2-19.5h124.9c10.6,0,19.2,8.8,19.2,19.5C406.8,62.2,398.1,71,387.5,71z"/>
	<ellipse class="st0" cx="265.9" cy="51.7" rx="14.3" ry="14.5"/>
	<path class="st1" d="M260.9,46c1-1,2.4-1.6,3.8-1.6s2.8,0.6,3.8,1.6c2.1,2.1,2.1,5.6,0,7.7c-1,1-2.4,1.6-3.8,1.6s-2.8-0.6-3.8-1.6
		C258.8,51.6,258.8,48.1,260.9,46z M259.6,55c1.3,1.4,3.1,2.1,5,2.1c1.3,0,2.5-0.3,3.5-0.9l3.2,3.3c0.4,0.4,0.9,0.6,1.4,0.6
		s1-0.2,1.4-0.6c0.8-0.8,0.8-2,0-2.8l-3.2-3.3c1.5-2.8,1.1-6.3-1.2-8.7c-1.3-1.4-3.1-2.1-5-2.1s-3.7,0.8-5,2.1
		C256.8,47.6,256.8,52.2,259.6,55z"/>
	<path class="st0" d="M294,57.9c0.3,0.1,0.8,0.1,1.5,0.1c1.8,0,3.5-0.7,3.5-2.7c0-1.9-1.6-2.7-3.5-2.7H294V57.9z M294,51.3h1.6
		c1.9,0,2.9-1,2.9-2.3c0-1.6-1.2-2.3-3-2.3c-0.8,0-1.3,0.1-1.6,0.1L294,51.3L294,51.3z M292.3,45.6c0.8-0.2,2-0.3,3.2-0.3
		c1.8,0,2.9,0.3,3.7,1c0.7,0.5,1.1,1.4,1.1,2.4c0,1.3-0.9,2.5-2.3,3l0,0c1.3,0.3,2.8,1.4,2.8,3.5c0,1.2-0.5,2.1-1.2,2.8
		c-0.9,0.9-2.5,1.3-4.7,1.3c-1.2,0-2.1-0.1-2.7-0.2V45.6H292.3z"/>
	<path class="st0" d="M311.3,56.6c0,1,0,1.9,0.1,2.7h-1.6l-0.1-1.6l0,0c-0.5,0.8-1.5,1.8-3.2,1.8c-1.5,0-3.4-0.9-3.4-4.3v-5.8h1.8
		v5.5c0,1.9,0.6,3.2,2.2,3.2c1.2,0,2-0.8,2.3-1.6c0.1-0.3,0.2-0.6,0.2-0.9v-6.1h1.8L311.3,56.6L311.3,56.6z"/>
	<path class="st0" d="M314,57.4c0.5,0.3,1.5,0.7,2.3,0.7c1.3,0,1.9-0.7,1.9-1.5c0-0.9-0.5-1.3-1.8-1.8c-1.8-0.6-2.6-1.6-2.6-2.8
		c0-1.6,1.3-2.9,3.4-2.9c1,0,1.9,0.3,2.4,0.6l-0.4,1.3c-0.4-0.2-1.1-0.6-2-0.6c-1,0-1.6,0.6-1.6,1.4s0.6,1.2,1.9,1.7
		c1.7,0.7,2.6,1.5,2.6,3c0,1.7-1.3,3-3.7,3c-1.1,0-2.1-0.3-2.7-0.7L314,57.4z"/>
	<path class="st0" d="M329.2,58.9c-0.5,0.2-1.5,0.6-2.8,0.6c-2.9,0-4.9-2-4.9-5.1s2.1-5.3,5.2-5.3c1,0,2,0.3,2.5,0.5l-0.4,1.4
		c-0.4-0.2-1.1-0.5-2.1-0.5c-2.2,0-3.5,1.7-3.5,3.8c0,2.3,1.5,3.7,3.4,3.7c1,0,1.7-0.3,2.2-0.5L329.2,58.9z"/>
	<path class="st0" d="M336.5,54.2c-1.9,0-4.1,0.3-4.1,2.2c0,1.2,0.8,1.7,1.7,1.7c1.3,0,2.1-0.8,2.4-1.7c0.1-0.2,0.1-0.4,0.1-0.6
		v-1.6H336.5z M336.7,59.3l-0.1-1.3h-0.1c-0.5,0.8-1.6,1.5-3,1.5c-2,0-3-1.4-3-2.9c0-2.4,2.1-3.7,5.9-3.7v-0.2
		c0-0.8-0.2-2.3-2.2-2.3c-0.9,0-1.9,0.3-2.5,0.7l-0.4-1.2c0.8-0.5,2-0.9,3.2-0.9c3,0,3.7,2.1,3.7,4.1v3.7c0,0.9,0,1.7,0.2,2.4h-1.7
		V59.3z"/>
	<path class="st0" d="M341.1,52.4c0-1.2,0-2.2-0.1-3.1h1.6l0.1,1.9h0.1c0.4-1.3,1.5-2.2,2.7-2.2c0.2,0,0.3,0,0.5,0.1v1.7
		c-0.2,0-0.4-0.1-0.6-0.1c-1.3,0-2.1,1-2.4,2.3c0,0.2-0.1,0.5-0.1,0.8v5.3h-1.8L341.1,52.4L341.1,52.4z"/>
	<path class="st2" d="M194.7,53.9h3.8l-1.9-5.3L194.7,53.9z M199,55.1h-4.7l-1.1,2.9h-1.5l4.3-11.3h1.3l4.3,11.3H200L199,55.1z
		 M184.2,48v8.9h1.6c1.1,0,2-0.4,2.7-1.1c0.6-0.7,1-1.7,1-3V52c0-1.3-0.3-2.3-0.9-3c-0.6-0.7-1.5-1.1-2.6-1.1L184.2,48L184.2,48z
		 M182.7,58V46.7h3.2c1,0,1.9,0.2,2.6,0.7c0.8,0.4,1.3,1.1,1.7,1.9s0.6,1.7,0.6,2.8v0.7c0,1.1-0.2,2-0.6,2.8c-0.4,0.8-1,1.4-1.8,1.8
		s-1.6,0.6-2.7,0.7L182.7,58L182.7,58z M180.3,52.8h-4.9v4h5.7V58h-7.2V46.7h7.1V48h-5.6v3.6h4.9V52.8z M171.8,46.7v7.7
		c0,1.1-0.3,1.9-1,2.6s-1.6,1.1-2.7,1.1h-0.4c-1.2,0-2.2-0.3-3-1c-0.7-0.7-1.1-1.6-1.1-2.8v-7.7h1.5v7.6c0,0.8,0.2,1.5,0.7,1.9
		c0.4,0.4,1.1,0.7,1.9,0.7c0.8,0,1.5-0.2,1.9-0.7c0.4-0.4,0.7-1.1,0.7-1.9v-7.7h1.5V46.7z M160.3,52c0-1.3-0.3-2.4-0.8-3.1
		s-1.3-1.1-2.3-1.1c-0.9,0-1.7,0.4-2.2,1.1s-0.8,1.7-0.8,3v0.8c0,1.3,0.3,2.3,0.8,3.1c0.5,0.7,1.3,1.1,2.3,1.1s1.7-0.3,2.2-1
		s0.8-1.7,0.8-3V52z M161.8,52.7c0,1.1-0.2,2-0.5,2.8s-0.8,1.4-1.5,1.8l2,1.6l-1,0.9l-2.4-1.9c-0.4,0.1-0.8,0.1-1.2,0.1
		c-0.9,0-1.7-0.2-2.4-0.7c-0.7-0.4-1.2-1.1-1.6-1.9c-0.4-0.8-0.6-1.8-0.6-2.8V52c0-1.1,0.2-2,0.6-2.9c0.4-0.8,0.9-1.5,1.6-1.9
		c0.7-0.4,1.5-0.7,2.4-0.7s1.7,0.2,2.4,0.7c0.7,0.4,1.2,1.1,1.6,1.9c0.4,0.8,0.6,1.8,0.6,2.9L161.8,52.7L161.8,52.7z M147.3,53
		c-1.3-0.4-2.2-0.8-2.8-1.4c-0.6-0.5-0.9-1.2-0.9-2c0-0.9,0.4-1.6,1.1-2.2c0.7-0.6,1.6-0.9,2.8-0.9c0.8,0,1.5,0.2,2.1,0.4
		c0.6,0.3,1.1,0.7,1.4,1.2c0.3,0.5,0.5,1.1,0.5,1.7H150c0-0.7-0.2-1.2-0.7-1.6c-0.4-0.4-1-0.6-1.8-0.6c-0.7,0-1.3,0.2-1.7,0.5
		s-0.6,0.8-0.6,1.3s0.2,0.9,0.6,1.2c0.4,0.3,1.1,0.6,2,0.9s1.7,0.6,2.2,0.9s0.9,0.7,1.2,1.1s0.4,0.9,0.4,1.5c0,0.9-0.4,1.6-1.1,2.2
		c-0.7,0.5-1.7,0.8-2.9,0.8c-0.8,0-1.5-0.1-2.2-0.4s-1.2-0.7-1.6-1.2c-0.4-0.5-0.5-1.1-0.5-1.8h1.5c0,0.7,0.3,1.2,0.8,1.6
		s1.2,0.6,2,0.6s1.4-0.2,1.8-0.5c0.4-0.3,0.6-0.8,0.6-1.3c0-0.6-0.2-1-0.6-1.3C149,53.6,148.3,53.3,147.3,53z M138.5,43.7h1.7
		l-2.1,2.3H137L138.5,43.7z M141.9,46.7v7.7c0,1.1-0.3,1.9-1,2.6s-1.6,1.1-2.7,1.1h-0.4c-1.2,0-2.2-0.3-3-1
		c-0.7-0.7-1.1-1.6-1.1-2.8v-7.7h1.5v7.6c0,0.8,0.2,1.5,0.7,1.9c0.4,0.4,1.1,0.7,1.9,0.7c0.8,0,1.5-0.2,1.9-0.7
		c0.4-0.4,0.7-1.1,0.7-1.9v-7.7h1.5V46.7z M125.7,51.5h2.2c0.7,0,1.2-0.2,1.6-0.5c0.4-0.3,0.6-0.8,0.6-1.3c0-0.6-0.2-1.1-0.5-1.4
		c-0.4-0.3-0.9-0.4-1.7-0.4h-2.2L125.7,51.5L125.7,51.5z M125.7,52.7v4.1h2.5c0.7,0,1.2-0.2,1.6-0.5c0.4-0.4,0.6-0.9,0.6-1.5
		c0-1.4-0.7-2-2.2-2L125.7,52.7L125.7,52.7z M124.2,58V46.7h3.7c1.2,0,2.1,0.3,2.8,0.8c0.6,0.5,0.9,1.3,0.9,2.2c0,0.5-0.2,1-0.4,1.4
		c-0.3,0.4-0.7,0.7-1.2,0.9c0.6,0.2,1.1,0.5,1.4,1c0.4,0.5,0.5,1,0.5,1.7c0,1-0.3,1.8-1,2.4s-1.6,0.9-2.8,0.9H124.2z M118.4,46.7
		v7.7c0,1.1-0.3,1.9-1,2.6s-1.6,1.1-2.7,1.1h-0.4c-1.2,0-2.2-0.3-3-1c-0.7-0.7-1.1-1.6-1.1-2.8v-7.7h1.5v7.6c0,0.8,0.2,1.5,0.7,1.9
		c0.4,0.4,1.1,0.7,1.9,0.7s1.5-0.2,1.9-0.7c0.4-0.4,0.7-1.1,0.7-1.9v-7.7h1.5V46.7z M109,48h-3.6v10h-1.5V48h-3.6v-1.2h8.7V48z
		 M95.4,52.8h-4.9v4h5.7V58H89V46.7h7.1V48h-5.6v3.6h4.9V52.8z M80.9,51.5h2.2c0.7,0,1.2-0.2,1.6-0.5s0.6-0.8,0.6-1.3
		c0-0.6-0.2-1.1-0.5-1.4c-0.4-0.3-0.9-0.4-1.7-0.4h-2.2V51.5z M80.9,52.7v4.1h2.5c0.7,0,1.2-0.2,1.6-0.5c0.4-0.4,0.6-0.9,0.6-1.5
		c0-1.4-0.7-2-2.2-2L80.9,52.7L80.9,52.7z M79.4,58V46.7h3.7c1.2,0,2.1,0.3,2.8,0.8c0.6,0.5,0.9,1.3,0.9,2.2c0,0.5-0.1,1-0.4,1.4
		s-0.7,0.7-1.2,0.9c0.6,0.2,1.1,0.5,1.4,1c0.4,0.5,0.5,1,0.5,1.7c0,1-0.3,1.8-1,2.4S84.5,58,83.3,58H79.4z M76.9,58h-1.5V46.7h1.5
		V58z M67.2,52.2h2.3c0.7,0,1.3-0.2,1.8-0.6c0.4-0.4,0.7-0.9,0.7-1.5c0-0.7-0.2-1.2-0.6-1.6s-1-0.6-1.8-0.6h-2.3L67.2,52.2
		L67.2,52.2z M69.9,53.5h-2.7V58h-1.5V46.7h3.7c1.3,0,2.2,0.3,2.9,0.9c0.7,0.6,1,1.4,1,2.5c0,0.7-0.2,1.3-0.6,1.8s-0.9,0.9-1.6,1.2
		l2.7,4.8V58h-1.6L69.9,53.5z M63.9,54.4c-0.1,1.2-0.6,2.1-1.3,2.8c-0.7,0.6-1.7,1-3,1s-2.4-0.5-3.2-1.4c-0.8-1-1.2-2.2-1.2-3.8
		v-1.1c0-1,0.2-2,0.6-2.8c0.4-0.8,0.9-1.4,1.6-1.8c0.7-0.4,1.5-0.6,2.4-0.6c1.2,0,2.2,0.3,2.9,1s1.1,1.6,1.3,2.8h-1.5
		c-0.1-0.9-0.4-1.6-0.8-2c-0.4-0.4-1-0.6-1.8-0.6c-1,0-1.7,0.4-2.2,1.1s-0.8,1.7-0.8,3v1c0,1.2,0.3,2.2,0.8,2.9
		c0.5,0.7,1.2,1.1,2.1,1.1c0.8,0,1.5-0.2,1.9-0.6s0.7-1,0.9-2H63.9z M49.8,53c-1.3-0.4-2.2-0.8-2.8-1.4c-0.6-0.5-0.9-1.2-0.9-2
		c0-0.9,0.4-1.6,1.1-2.2c0.7-0.6,1.6-0.9,2.8-0.9c0.8,0,1.5,0.2,2.1,0.4c0.6,0.3,1.1,0.7,1.4,1.2c0.3,0.5,0.5,1.1,0.5,1.7h-1.5
		c0-0.7-0.2-1.2-0.7-1.6c-0.4-0.4-1-0.6-1.8-0.6c-0.7,0-1.3,0.2-1.7,0.5s-0.6,0.8-0.6,1.3s0.2,0.9,0.6,1.2c0.4,0.3,1.1,0.6,2,0.9
		s1.7,0.6,2.2,0.9s0.9,0.7,1.2,1.1s0.4,0.9,0.4,1.5c0,0.9-0.4,1.6-1.1,2.2c-0.7,0.5-1.7,0.8-2.9,0.8c-0.8,0-1.5-0.1-2.2-0.4
		s-1.2-0.7-1.6-1.2c-0.4-0.5-0.5-1.1-0.5-1.8h1.5c0,0.7,0.3,1.2,0.8,1.6s1.2,0.6,2,0.6s1.4-0.2,1.8-0.5c0.4-0.3,0.6-0.8,0.6-1.3
		c0-0.6-0.2-1-0.6-1.3C51.5,53.6,50.8,53.3,49.8,53z M44,52.8h-4.9v4h5.7V58h-7.2V46.7h7.1V48h-5.6v3.6H44V52.8z"/>
</g>
</svg>
