<?xml version="1.0" encoding="utf-8"?>
<!-- Generator: Adobe Illustrator 24.3.0, SVG Export Plug-In . SVG Version: 6.00 Build 0)  -->
<svg version="1.1" id="Capa_1" xmlns="http://www.w3.org/2000/svg" xmlns:xlink="http://www.w3.org/1999/xlink" x="0px" y="0px"
	 viewBox="0 0 52 52" style="enable-background:new 0 0 52 52;" xml:space="preserve">
<style type="text/css">
	.st0{fill:#FFFFFF;}
</style>
<g>
	<g>
		<path class="st0" d="M49.81,12.67c-1.73,0.76-3.58,1.27-5.51,1.51c1.98-1.18,3.49-3.04,4.21-5.28c-1.85,1.1-3.89,1.88-6.06,2.31
			c-1.75-1.87-4.26-3.03-6.98-3.03c-5.29,0-9.55,4.3-9.55,9.56c0,0.76,0.06,1.49,0.22,2.18c-7.95-0.39-14.98-4.2-19.71-10
			c-0.82,1.43-1.31,3.07-1.31,4.83c0,3.31,1.71,6.25,4.25,7.95c-1.54-0.03-3.04-0.48-4.32-1.18c0,0.03,0,0.07,0,0.1
			c0,4.65,3.31,8.51,7.66,9.39c-0.78,0.21-1.63,0.31-2.51,0.31c-0.61,0-1.23-0.03-1.81-0.16c1.24,3.79,4.75,6.57,8.93,6.66
			c-3.25,2.54-7.38,4.08-11.85,4.08c-0.78,0-1.54-0.03-2.29-0.13c4.24,2.73,9.25,4.29,14.67,4.29c17.59,0,27.21-14.57,27.21-27.21
			c0-0.42-0.01-0.83-0.03-1.24C46.91,16.28,48.51,14.6,49.81,12.67z"/>
	</g>
</g>
</svg>
