<?xml version="1.0" encoding="utf-8"?>
<!-- Generator: Adobe Illustrator 24.3.0, SVG Export Plug-In . SVG Version: 6.00 Build 0)  -->
<svg version="1.1" id="Guías" xmlns="http://www.w3.org/2000/svg" xmlns:xlink="http://www.w3.org/1999/xlink" x="0px" y="0px"
	 viewBox="0 0 30.15 29.82" style="enable-background:new 0 0 30.15 29.82;" xml:space="preserve">
<style type="text/css">
	.st0{fill:#EF772D;}
</style>
<path class="st0" d="M17.72,22.87c-0.79,1.04-1.66,2.19-2.64,3.49c-0.98-1.31-1.86-2.47-2.66-3.51c-5.4-7.12-6.38-8.41-6.38-11.65
	c0-4.98,4.05-9.03,9.03-9.03c4.98,0,9.03,4.05,9.03,9.03C24.11,14.43,23.14,15.72,17.72,22.87z M15.08,0.52
	C9.2,0.52,4.41,5.31,4.41,11.19c0,3.8,1.16,5.32,6.71,12.64c0.96,1.27,2.06,2.71,3.31,4.38c0.16,0.21,0.4,0.33,0.66,0.33
	c0.26,0,0.5-0.12,0.66-0.33c1.24-1.66,2.33-3.09,3.29-4.36c5.57-7.34,6.73-8.87,6.73-12.66C25.75,5.31,20.97,0.52,15.08,0.52z"/>
<path class="st0" d="M15.08,15.3c-2.26,0-4.11-1.84-4.11-4.11s1.84-4.11,4.11-4.11s4.11,1.84,4.11,4.11S17.35,15.3,15.08,15.3z
	 M15.08,5.45c-3.17,0-5.75,2.58-5.75,5.75c0,3.17,2.58,5.75,5.75,5.75c3.17,0,5.75-2.58,5.75-5.75C20.83,8.02,18.25,5.45,15.08,5.45
	z"/>
</svg>
