<?xml version="1.0" encoding="utf-8"?>
<!-- Generator: Adobe Illustrator 24.3.0, SVG Export Plug-In . SVG Version: 6.00 Build 0)  -->
<svg version="1.1" id="Capa_1" xmlns="http://www.w3.org/2000/svg" xmlns:xlink="http://www.w3.org/1999/xlink" x="0px" y="0px"
	 viewBox="0 0 116.6 40.1" style="enable-background:new 0 0 116.6 40.1;" xml:space="preserve">
<style type="text/css">
	.st0{fill:#FF7822;}
	.st1{fill:#FFFFFF;}
</style>
<path class="st0" d="M96.1,40.2H20.3C9.1,40.2,0,31.2,0,20.1C0,9,9.1,0,20.3,0h75.9c11.2,0,20.2,9,20.2,20.1
	C116.4,31.2,107.3,40.2,96.1,40.2z"/>
<path class="st1" d="M96.1,37.4H20.3c-9.6,0-17.4-7.8-17.4-17.3c0-9.5,7.8-17.3,17.4-17.3h75.9c9.6,0,17.4,7.8,17.4,17.3
	S105.7,37.4,96.1,37.4z M20.3,3.9C11.3,3.9,4,11.2,4,20.1c0,8.9,7.3,16.1,16.2,16.1h75.9c9,0,16.2-7.2,16.2-16.1
	c0-8.9-7.3-16.1-16.2-16.1H20.3z"/>
<path class="st1" d="M102.5,19.9l-10.6-0.4l0,0.5l10.6,0.4L102.5,19.9z M91.9,19.5c-0.1,0-0.2,0.1-0.2,0.2c0,0.1,0.1,0.2,0.2,0.2
	L91.9,19.5z M102.5,20.4c0.1,0,0.2-0.1,0.2-0.2c0-0.1-0.1-0.2-0.2-0.2L102.5,20.4z"/>
<path class="st1" d="M97.4,25.3l0-10.6l-0.4,0l0,10.6L97.4,25.3z M97.4,14.6c0-0.1-0.1-0.2-0.2-0.2c-0.1,0-0.2,0.1-0.2,0.2
	L97.4,14.6z M97,25.2c0,0.1,0.1,0.2,0.2,0.2s0.2-0.1,0.2-0.2L97,25.2z"/>
<path class="st1" d="M102,29.7c5.3-2.8,7.4-9.5,4.8-14.9l-0.4,0.2c2.5,5.2,0.5,11.5-4.6,14.3L102,29.7z M87.6,25.1
	c2.6,5.4,9.1,7.4,14.3,4.6l-0.2-0.4C96.7,32,90.6,30,88,24.9L87.6,25.1z M92.4,10.2c-5.3,2.8-7.4,9.5-4.8,14.9l0.4-0.2
	c-2.5-5.2-0.5-11.5,4.6-14.3L92.4,10.2z M106.7,14.8c-2.6-5.4-9.1-7.4-14.3-4.6l0.2,0.4c5.1-2.7,11.2-0.8,13.8,4.4L106.7,14.8z"/>
<g>
	<path class="st1" d="M76.6,22.8c0-0.4-0.2-0.8-0.5-1c-0.3-0.2-0.9-0.5-1.7-0.7c-0.8-0.3-1.4-0.5-1.9-0.8c-1.3-0.7-1.9-1.6-1.9-2.8
		c0-0.6,0.2-1.1,0.5-1.6c0.3-0.5,0.8-0.8,1.5-1.1c0.6-0.3,1.4-0.4,2.1-0.4c0.8,0,1.5,0.1,2.1,0.4c0.6,0.3,1.1,0.7,1.4,1.2
		c0.3,0.5,0.5,1.1,0.5,1.8h-2.3c0-0.5-0.2-0.9-0.5-1.2c-0.3-0.3-0.8-0.4-1.4-0.4c-0.6,0-1,0.1-1.3,0.4c-0.3,0.2-0.5,0.5-0.5,0.9
		c0,0.4,0.2,0.7,0.5,0.9c0.4,0.2,0.9,0.5,1.6,0.7c1.3,0.4,2.3,0.9,2.9,1.5c0.6,0.6,0.9,1.3,0.9,2.2c0,1-0.4,1.7-1.1,2.3
		c-0.7,0.5-1.7,0.8-2.9,0.8c-0.9,0-1.6-0.2-2.3-0.5c-0.7-0.3-1.2-0.7-1.6-1.3c-0.4-0.5-0.6-1.2-0.6-1.9h2.3c0,1.2,0.7,1.8,2.2,1.8
		c0.5,0,1-0.1,1.3-0.3C76.5,23.5,76.6,23.2,76.6,22.8z M63.2,21.6H66l-1.4-4.2L63.2,21.6z M66.6,23.4h-4l-0.8,2.3h-2.4l4.1-11.1h2.1
		l4.2,11.1h-2.4L66.6,23.4z M49.5,14.6l2.9,8.1l2.8-8.1h3v11.1h-2.3v-3l0.2-5.3l-3,8.3h-1.6l-3-8.3l0.2,5.2v3h-2.3V14.6H49.5z
		 M34.9,19.8h1.9c0.6,0,1-0.1,1.3-0.4c0.3-0.3,0.5-0.7,0.5-1.2c0-0.5-0.2-0.9-0.5-1.2c-0.3-0.3-0.8-0.5-1.4-0.5h-1.8V19.8z
		 M36.7,21.6h-1.8v4.1h-2.3V14.6h4.1c1.3,0,2.3,0.3,3,0.9c0.7,0.6,1.1,1.4,1.1,2.5c0,0.8-0.2,1.4-0.5,1.9c-0.3,0.5-0.8,0.9-1.5,1.2
		l2.4,4.6v0.1h-2.5L36.7,21.6z M30.5,20.9h-4.4v3h5.2v1.8h-7.5V14.6h7.4v1.9h-5.2v2.7h4.4V20.9z M17.6,23l2.5-8.4h2.6l-3.9,11.1
		h-2.4l-3.9-11.1h2.5L17.6,23z"/>
</g>
</svg>
