<?xml version="1.0" encoding="utf-8"?>
<!-- Generator: Adobe Illustrator 24.3.0, SVG Export Plug-In . SVG Version: 6.00 Build 0)  -->
<svg version="1.1" id="Guías" xmlns="http://www.w3.org/2000/svg" xmlns:xlink="http://www.w3.org/1999/xlink" x="0px" y="0px"
	 viewBox="0 0 30.15 29.82" style="enable-background:new 0 0 30.15 29.82;" xml:space="preserve">
<style type="text/css">
	.st0{fill-rule:evenodd;clip-rule:evenodd;fill:#EF772D;}
</style>
<path class="st0" d="M21.62,17.97c-0.36-0.18-2.14-1.06-2.48-1.18c-0.33-0.12-0.57-0.18-0.81,0.18c-0.24,0.36-0.94,1.18-1.15,1.42
	s-0.42,0.27-0.78,0.09c-0.36-0.18-1.53-0.56-2.91-1.8c-1.08-0.96-1.8-2.15-2.02-2.51c-0.21-0.36,0-0.54,0.16-0.74
	c0.39-0.49,0.78-1,0.91-1.24c0.12-0.24,0.06-0.45-0.03-0.63c-0.09-0.18-0.81-1.96-1.12-2.69c-0.29-0.71-0.59-0.61-0.82-0.62
	c-0.21-0.01-0.45-0.01-0.69-0.01c-0.24,0-0.63,0.09-0.97,0.45c-0.33,0.36-1.27,1.24-1.27,3.02c0,1.78,1.3,3.51,1.48,3.75
	c0.18,0.24,2.55,3.9,6.19,5.47c0.86,0.37,1.54,0.6,2.07,0.76c0.87,0.28,1.66,0.24,2.28,0.14c0.7-0.1,2.14-0.88,2.45-1.72
	c0.3-0.85,0.3-1.57,0.21-1.72C22.22,18.24,21.98,18.15,21.62,17.97z M15,26.99L15,26.99c-2.17,0-4.29-0.58-6.14-1.68l-0.44-0.26
	l-4.56,1.2l1.22-4.45L4.8,21.35c-1.21-1.92-1.84-4.14-1.84-6.41c0-6.64,5.41-12.05,12.06-12.05c3.22,0,6.25,1.26,8.52,3.53
	c2.28,2.28,3.53,5.31,3.53,8.53C27.05,21.59,21.65,26.99,15,26.99z M25.26,4.69C22.52,1.95,18.88,0.44,15,0.43
	c-7.99,0-14.5,6.5-14.5,14.5c0,2.56,0.67,5.05,1.94,7.25L0.38,29.7l7.69-2.02c2.12,1.16,4.5,1.76,6.93,1.76H15
	c7.99,0,14.5-6.5,14.5-14.5C29.51,11.07,28,7.43,25.26,4.69z"/>
</svg>
