<?xml version="1.0" encoding="utf-8"?>
<!-- Generator: Adobe Illustrator 24.3.0, SVG Export Plug-In . SVG Version: 6.00 Build 0)  -->
<svg version="1.1" id="Capa_1" xmlns="http://www.w3.org/2000/svg" xmlns:xlink="http://www.w3.org/1999/xlink" x="0px" y="0px"
	 viewBox="0 0 52 52" style="enable-background:new 0 0 52 52;" xml:space="preserve">
<style type="text/css">
	.st0{fill:#EF772D;}
</style>
<g>
	<g>
		<path class="st0" d="M25.79,0.25h-0.01c-14.13,0-25.62,11.49-25.62,25.62c0,5.61,1.81,10.8,4.88,15.02l-3.19,9.52l9.85-3.15
			c4.05,2.68,8.89,4.23,14.1,4.23c14.13,0,25.62-11.5,25.62-25.62S39.92,0.25,25.79,0.25z M40.7,36.44
			c-0.62,1.75-3.07,3.19-5.03,3.62c-1.34,0.29-3.09,0.51-8.98-1.93c-7.53-3.12-12.38-10.77-12.76-11.27
			c-0.36-0.5-3.04-4.05-3.04-7.73s1.87-5.47,2.62-6.24c0.62-0.63,1.64-0.92,2.62-0.92c0.32,0,0.6,0.02,0.86,0.03
			c0.75,0.03,1.13,0.08,1.63,1.27c0.62,1.49,2.12,5.17,2.3,5.54c0.18,0.38,0.37,0.89,0.11,1.39c-0.24,0.51-0.45,0.74-0.83,1.18
			s-0.74,0.77-1.11,1.24c-0.35,0.41-0.74,0.84-0.3,1.6c0.44,0.74,1.94,3.19,4.16,5.17c2.86,2.55,5.18,3.36,6.01,3.71
			c0.62,0.26,1.35,0.2,1.81-0.29c0.57-0.62,1.28-1.64,2-2.65c0.51-0.72,1.16-0.81,1.84-0.56c0.69,0.24,4.35,2.05,5.11,2.42
			c0.75,0.38,1.25,0.56,1.43,0.87C41.32,33.2,41.32,34.69,40.7,36.44z"/>
	</g>
</g>
</svg>
