<?xml version="1.0" encoding="utf-8"?>
<!-- Generator: Adobe Illustrator 24.3.0, SVG Export Plug-In . SVG Version: 6.00 Build 0)  -->
<svg version="1.1" id="Guías" xmlns="http://www.w3.org/2000/svg" xmlns:xlink="http://www.w3.org/1999/xlink" x="0px" y="0px"
	 viewBox="0 0 40 40" style="enable-background:new 0 0 40 40;" xml:space="preserve">
<style type="text/css">
	.st0{fill-rule:evenodd;clip-rule:evenodd;fill:#EF772D;}
</style>
<path class="st0" d="M28.94,23.79c-0.48-0.24-2.86-1.41-3.3-1.57c-0.44-0.16-0.76-0.24-1.09,0.24c-0.32,0.48-1.25,1.57-1.53,1.89
	c-0.28,0.32-0.56,0.36-1.05,0.12c-0.48-0.24-2.04-0.75-3.89-2.4c-1.44-1.28-2.41-2.86-2.69-3.35c-0.28-0.48,0-0.72,0.21-0.99
	c0.52-0.65,1.05-1.33,1.21-1.65c0.16-0.32,0.08-0.6-0.04-0.85c-0.12-0.24-1.09-2.62-1.49-3.59c-0.39-0.94-0.79-0.81-1.09-0.83
	c-0.28-0.01-0.6-0.02-0.93-0.02c-0.32,0-0.85,0.12-1.29,0.6c-0.44,0.48-1.69,1.65-1.69,4.03c0,2.38,1.73,4.68,1.97,5
	c0.24,0.32,3.41,5.2,8.25,7.29c1.15,0.5,2.05,0.8,2.75,1.02c1.16,0.37,2.21,0.32,3.04,0.19c0.93-0.14,2.86-1.17,3.26-2.3
	c0.4-1.13,0.4-2.1,0.28-2.3C29.75,24.15,29.42,24.03,28.94,23.79z M20.13,35.82L20.13,35.82c-2.89,0-5.72-0.78-8.19-2.24l-0.59-0.35
	l-6.08,1.6l1.62-5.93l-0.38-0.61c-1.61-2.56-2.46-5.52-2.46-8.55c0-8.86,7.21-16.07,16.08-16.07c4.29,0,8.33,1.68,11.36,4.71
	c3.03,3.04,4.7,7.08,4.7,11.37C36.19,28.62,28.98,35.82,20.13,35.82z M33.8,6.08c-3.65-3.65-8.51-5.67-13.68-5.67
	C9.47,0.41,0.8,9.08,0.79,19.74c0,3.41,0.89,6.73,2.58,9.67L0.63,39.43l10.25-2.69c2.82,1.54,6,2.35,9.24,2.35h0.01
	c10.66,0,19.33-8.67,19.33-19.33C39.46,14.59,37.45,9.73,33.8,6.08z"/>
</svg>
