<?xml version="1.0" encoding="utf-8"?>
<!-- Generator: Adobe Illustrator 24.3.0, SVG Export Plug-In . SVG Version: 6.00 Build 0)  -->
<svg version="1.1" id="Capa_1" xmlns="http://www.w3.org/2000/svg" xmlns:xlink="http://www.w3.org/1999/xlink" x="0px" y="0px"
	 viewBox="0 0 52 52" style="enable-background:new 0 0 52 52;" xml:space="preserve">
<style type="text/css">
	.st0{fill:#FFFFFF;}
</style>
<path class="st0" d="M50.84,13.39c-0.6-2.22-2.34-3.96-4.56-4.56c-4.05-1.11-20.24-1.11-20.24-1.11s-16.2,0-20.24,1.07
	c-2.17,0.6-3.96,2.39-4.56,4.6c-1.07,4.05-1.07,12.44-1.07,12.44s0,8.44,1.07,12.44c0.6,2.22,2.34,3.96,4.56,4.56
	c4.09,1.11,20.24,1.11,20.24,1.11s16.2,0,20.24-1.07c2.22-0.6,3.96-2.34,4.56-4.56c1.07-4.05,1.07-12.44,1.07-12.44
	S51.94,17.44,50.84,13.39z M20.88,33.59V18.08l13.47,7.76L20.88,33.59z"/>
</svg>
